# Exported from ProBuilder
# http://www.procore3d.com/probuilder
# 5/4/2018 12:05:02 PM

mtllib ./Bookcase(A).mtl
o Bookcase(A)

g Bookcase(A)
v -1.4717 0.03593171 -0.07150251
v 0.01170015 0.03593171 -0.07150251
v -1.4717 1.050582 -0.07150251
v 0.01170015 1.050582 -0.07150251
v 0.01170015 0.03593171 -0.07150251
v 0.01170015 0.03593171 0.9284975
v 0.01170015 1.050582 -0.07150251
v 0.01170015 1.050582 0.9284975
v 0.01170015 0.03593171 0.9284975
v -1.4717 0.03593171 0.9284975
v 0.01170015 1.050582 0.9284975
v -1.4717 1.050582 0.9284975
v -1.4717 0.03593171 0.9284975
v -1.4717 0.03593171 -0.07150251
v -1.4717 1.050582 0.9284975
v -1.4717 1.050582 -0.07150251
v -1.4717 2.506068 -0.07150251
v 0.01170015 2.506068 -0.07150251
v -1.4717 2.506068 0.9284975
v 0.01170015 2.506068 0.9284975
v -1.4717 0.03593171 0.9284975
v 0.01170015 0.03593171 0.9284975
v -1.4717 0.03593171 -0.07150251
v 0.01170015 0.03593171 -0.07150251
v -1.381151 1.078444 0.6584017
v -0.06785917 1.078444 0.6584017
v -1.381151 2.431834 0.6584017
v -0.06785917 2.431834 0.6584017
v -1.4717 1.050582 0.9284975
v -1.4717 1.050582 -0.07150251
v -1.4717 2.506068 0.9284975
v -1.4717 2.506068 -0.07150251
v 0.01170015 1.050582 -0.07150251
v 0.01170015 1.050582 0.9284975
v 0.01170015 2.506068 -0.07150251
v 0.01170015 2.506068 0.9284975
v 0.01170015 1.050582 0.9284975
v -1.4717 1.050582 0.9284975
v 0.01170015 2.506068 0.9284975
v -1.4717 2.506068 0.9284975
v -1.4717 1.050582 -0.07150251
v 0.01170015 1.050582 -0.07150251
v -1.381151 1.078444 -0.07651883
v -0.06785917 1.078444 -0.07651883
v -1.4717 2.506068 -0.07150251
v -1.4717 1.050582 -0.07150251
v -1.381151 2.431834 -0.07651883
v -1.381151 1.078444 -0.07651883
v 0.01170015 1.050582 -0.07150251
v 0.01170015 2.506068 -0.07150251
v -0.06785917 1.078444 -0.07651883
v -0.06785917 2.431834 -0.07651883
v 0.01170015 2.506068 -0.07150251
v -1.4717 2.506068 -0.07150251
v -0.06785917 2.431834 -0.07651883
v -1.381151 2.431834 -0.07651883
v -1.381151 1.078444 -0.07651883
v -0.06785917 1.078444 -0.07651883
v -1.381151 1.078444 0.6584017
v -0.06785917 1.078444 0.6584017
v -1.381151 2.431834 -0.07651883
v -1.381151 1.078444 -0.07651883
v -1.381151 2.431834 0.6584017
v -1.381151 1.078444 0.6584017
v -0.06785917 1.078444 -0.07651883
v -0.06785917 2.431834 -0.07651883
v -0.06785917 1.078444 0.6584017
v -0.06785917 2.431834 0.6584017
v -0.06785917 2.431834 -0.07651883
v -1.381151 2.431834 -0.07651883
v -0.06785917 2.431834 0.6584017
v -1.381151 2.431834 0.6584017
v -0.7068782 0.1776915 -0.0944975
v -0.03799105 0.1776915 -0.0944975
v -0.7068782 0.9312446 -0.0944975
v -0.03799105 0.9312446 -0.0944975
v -0.03799105 0.1776915 -0.0944975
v -0.03799105 0.1776915 -0.05533391
v -0.03799105 0.9312446 -0.0944975
v -0.03799105 0.9312446 -0.05533391
v -0.03799105 0.1776915 -0.05533391
v -0.7068782 0.1776915 -0.05533391
v -0.03799105 0.9312446 -0.05533391
v -0.7068782 0.9312446 -0.05533391
v -0.7068782 0.1776915 -0.05533391
v -0.7068782 0.1776915 -0.0944975
v -0.7068782 0.9312446 -0.05533391
v -0.7068782 0.9312446 -0.0944975
v -0.7068782 0.9312446 -0.0944975
v -0.03799105 0.9312446 -0.0944975
v -0.7068782 0.9312446 -0.05533391
v -0.03799105 0.9312446 -0.05533391
v -0.7068782 0.1776915 -0.05533391
v -0.03799105 0.1776915 -0.05533391
v -0.7068782 0.1776915 -0.0944975
v -0.03799105 0.1776915 -0.0944975
v -1.444878 0.1776915 -0.0944975
v -0.775991 0.1776915 -0.0944975
v -1.444878 0.9312446 -0.0944975
v -0.775991 0.9312446 -0.0944975
v -0.775991 0.1776915 -0.0944975
v -0.775991 0.1776915 -0.05533391
v -0.775991 0.9312446 -0.0944975
v -0.775991 0.9312446 -0.05533391
v -0.775991 0.1776915 -0.05533391
v -1.444878 0.1776915 -0.05533391
v -0.775991 0.9312446 -0.05533391
v -1.444878 0.9312446 -0.05533391
v -1.444878 0.1776915 -0.05533391
v -1.444878 0.1776915 -0.0944975
v -1.444878 0.9312446 -0.05533391
v -1.444878 0.9312446 -0.0944975
v -1.444878 0.9312446 -0.0944975
v -0.775991 0.9312446 -0.0944975
v -1.444878 0.9312446 -0.05533391
v -0.775991 0.9312446 -0.05533391
v -1.444878 0.1776915 -0.05533391
v -0.775991 0.1776915 -0.05533391
v -1.444878 0.1776915 -0.0944975
v -0.775991 0.1776915 -0.0944975
v -0.4574885 1.060932 -0.03957921
v -0.3739114 1.060932 -0.03957921
v -0.4574885 2.437481 -0.03957921
v -0.3739114 2.437481 -0.03957921
v -0.3739114 1.060932 -0.03957921
v -0.3739114 1.060932 0.5845739
v -0.3739114 2.437481 -0.03957921
v -0.3739114 2.437481 0.5845739
v -0.3739114 1.060932 0.5845739
v -0.4574885 1.060932 0.5845739
v -0.3739114 2.437481 0.5845739
v -0.4574885 2.437481 0.5845739
v -0.4574885 1.060932 0.5845739
v -0.4574885 1.060932 -0.03957921
v -0.4574885 2.437481 0.5845739
v -0.4574885 2.437481 -0.03957921
v -0.4574885 2.437481 -0.03957921
v -0.3739114 2.437481 -0.03957921
v -0.4574885 2.437481 0.5845739
v -0.3739114 2.437481 0.5845739
v -0.4574885 1.060932 0.5845739
v -0.3739114 1.060932 0.5845739
v -0.4574885 1.060932 -0.03957921
v -0.3739114 1.060932 -0.03957921
v -0.4477 1.390144 -0.009578526
v -0.4477 1.473721 -0.009578526
v -1.394544 1.390143 -0.009578526
v -1.394544 1.473721 -0.009578526
v -0.4477 1.473721 -0.009578526
v -0.4477 1.473721 0.6145746
v -1.394544 1.473721 -0.009578526
v -1.394544 1.473721 0.6145746
v -0.4477 1.473721 0.6145746
v -0.4477 1.390144 0.6145746
v -1.394544 1.473721 0.6145746
v -1.394544 1.390143 0.6145746
v -0.4477 1.390144 0.6145746
v -0.4477 1.390144 -0.009578526
v -1.394544 1.390143 0.6145746
v -1.394544 1.390143 -0.009578526
v -1.394544 1.390143 -0.009578526
v -1.394544 1.473721 -0.009578526
v -1.394544 1.390143 0.6145746
v -1.394544 1.473721 0.6145746
v -0.4477 1.390144 0.6145746
v -0.4477 1.473721 0.6145746
v -0.4477 1.390144 -0.009578526
v -0.4477 1.473721 -0.009578526
v -0.4477 1.982144 -0.009578526
v -0.4477 2.065721 -0.009578526
v -1.394544 1.982143 -0.009578526
v -1.394544 2.065721 -0.009578526
v -0.4477 2.065721 -0.009578526
v -0.4477 2.065721 0.6145746
v -1.394544 2.065721 -0.009578526
v -1.394544 2.065721 0.6145746
v -0.4477 2.065721 0.6145746
v -0.4477 1.982144 0.6145746
v -1.394544 2.065721 0.6145746
v -1.394544 1.982143 0.6145746
v -0.4477 1.982144 0.6145746
v -0.4477 1.982144 -0.009578526
v -1.394544 1.982143 0.6145746
v -1.394544 1.982143 -0.009578526
v -1.394544 1.982143 -0.009578526
v -1.394544 2.065721 -0.009578526
v -1.394544 1.982143 0.6145746
v -1.394544 2.065721 0.6145746
v -0.4477 1.982144 0.6145746
v -0.4477 2.065721 0.6145746
v -0.4477 1.982144 -0.009578526
v -0.4477 2.065721 -0.009578526
v -0.0533452 1.705144 -0.009578526
v -0.0533452 1.788721 -0.009578526
v -0.4245193 1.705143 -0.009578526
v -0.4245193 1.788721 -0.009578526
v -0.0533452 1.788721 -0.009578526
v -0.0533452 1.788721 0.6145746
v -0.4245193 1.788721 -0.009578526
v -0.4245193 1.788721 0.6145746
v -0.0533452 1.788721 0.6145746
v -0.0533452 1.705144 0.6145746
v -0.4245193 1.788721 0.6145746
v -0.4245193 1.705143 0.6145746
v -0.0533452 1.705144 0.6145746
v -0.0533452 1.705144 -0.009578526
v -0.4245193 1.705143 0.6145746
v -0.4245193 1.705143 -0.009578526
v -0.4245193 1.705143 -0.009578526
v -0.4245193 1.788721 -0.009578526
v -0.4245193 1.705143 0.6145746
v -0.4245193 1.788721 0.6145746
v -0.0533452 1.705144 0.6145746
v -0.0533452 1.788721 0.6145746
v -0.0533452 1.705144 -0.009578526
v -0.0533452 1.788721 -0.009578526

vn 0 0 -1
vn 0 0 -1
vn 0 0 -1
vn 0 0 -1
vn 1 0 0
vn 1 0 0
vn 1 0 0
vn 1 0 0
vn 0 0 1
vn 0 0 1
vn 0 0 1
vn 0 0 1
vn -1 0 0
vn -1 0 0
vn -1 0 0
vn -1 0 0
vn 0 1 0
vn 0 1 0
vn 0 1 0
vn 0 1 0
vn 0 -1 0
vn 0 -1 0
vn 0 -1 0
vn 0 -1 0
vn 0 0 -1
vn 0 0 -1
vn 0 0 -1
vn 0 0 -1
vn -1 0 0
vn -1 0 0
vn -1 0 0
vn -1 0 0
vn 1 0 0
vn 1 0 0
vn 1 0 0
vn 1 0 0
vn 0 0 1
vn 0 0 1
vn 0 0 1
vn 0 0 1
vn 0 -0.1771939 -0.9841759
vn 0 -0.177194 -0.9841759
vn 0 -0.1771939 -0.9841759
vn 0 -0.1771939 -0.9841759
vn -0.05531397 0 -0.998469
vn -0.05531396 0 -0.9984689
vn -0.05531396 0 -0.998469
vn -0.05531397 0 -0.998469
vn 0.06292643 0 -0.9980181
vn 0.06292644 0 -0.9980181
vn 0.06292644 0 -0.9980182
vn 0.06292643 0 -0.9980181
vn 0 0.06742033 -0.9977247
vn 0 0.06742033 -0.9977247
vn 0 0.06742032 -0.9977247
vn 0 0.06742033 -0.9977247
vn 0 1 0
vn 0 1 0
vn 0 1 0
vn 0 1 0
vn 1 0 0
vn 1 0 0
vn 1 0 0
vn 1 0 0
vn -1 0 0
vn -1 0 0
vn -1 0 0
vn -1 0 0
vn 0 -1 0
vn 0 -1 0
vn 0 -1 0
vn 0 -1 0
vn 0 0 -1
vn 0 0 -1
vn 0 0 -1
vn 0 0 -1
vn 1 0 0
vn 1 0 0
vn 1 0 0
vn 1 0 0
vn 0 0 1
vn 0 0 1
vn 0 0 1
vn 0 0 1
vn -1 0 0
vn -1 0 0
vn -1 0 0
vn -1 0 0
vn 0 1 0
vn 0 1 0
vn 0 1 0
vn 0 1 0
vn 0 -1 0
vn 0 -1 0
vn 0 -1 0
vn 0 -1 0
vn 0 0 -1
vn 0 0 -1
vn 0 0 -1
vn 0 0 -1
vn 1 0 0
vn 1 0 0
vn 1 0 0
vn 1 0 0
vn 0 0 1
vn 0 0 1
vn 0 0 1
vn 0 0 1
vn -1 0 0
vn -1 0 0
vn -1 0 0
vn -1 0 0
vn 0 1 0
vn 0 1 0
vn 0 1 0
vn 0 1 0
vn 0 -1 0
vn 0 -1 0
vn 0 -1 0
vn 0 -1 0
vn 0 0 -1
vn 0 0 -1
vn 0 0 -1
vn 0 0 -1
vn 1 0 0
vn 1 0 0
vn 1 0 0
vn 1 0 0
vn 0 0 1
vn 0 0 1
vn 0 0 1
vn 0 0 1
vn -1 0 0
vn -1 0 0
vn -1 0 0
vn -1 0 0
vn 0 1 0
vn 0 1 0
vn 0 1 0
vn 0 1 0
vn 0 -1 0
vn 0 -1 0
vn 0 -1 0
vn 0 -1 0
vn 0 0 -1
vn 0 0 -1
vn 0 0 -1
vn 0 0 -1
vn -2.518033E-07 0.9999999 0
vn -2.518033E-07 0.9999999 0
vn -2.518033E-07 0.9999999 0
vn -2.518033E-07 0.9999999 0
vn 0 0 1
vn 0 0 1
vn 0 0 1
vn 0 0 1
vn 2.518033E-07 -0.9999999 0
vn 2.518033E-07 -0.9999999 0
vn 2.518033E-07 -0.9999999 0
vn 2.518033E-07 -0.9999999 0
vn -1 0 0
vn -1 0 0
vn -1 0 0
vn -1 0 0
vn 1 0 0
vn 1 0 0
vn 1 0 0
vn 1 0 0
vn 0 0 -1
vn 0 0 -1
vn 0 0 -0.9999999
vn 0 0 -1
vn 0 0.9999999 0
vn 0 0.9999999 0
vn 0 0.9999999 0
vn 0 0.9999999 0
vn 0 0 1
vn 0 0 1
vn 0 0 0.9999999
vn 0 0 1
vn 2.518033E-07 -0.9999999 0
vn 2.518033E-07 -0.9999999 0
vn 2.518033E-07 -0.9999999 0
vn 2.518033E-07 -0.9999999 0
vn -0.9999999 0 0
vn -0.9999999 0 0
vn -0.9999999 0 0
vn -0.9999999 0 0
vn 1 0 0
vn 1 0 0
vn 1 0 0
vn 1 0 0
vn 0 0 -1
vn 0 0 -1
vn 0 0 -1
vn 0 0 -1
vn -6.423363E-07 1 0
vn -6.423363E-07 1 0
vn -6.423363E-07 1 0
vn -6.423363E-07 1 0
vn 0 0 1
vn 0 0 1
vn 0 0 1
vn 0 0 1
vn 6.423363E-07 -1 0
vn 6.423363E-07 -1 0
vn 6.423363E-07 -1 0
vn 6.423363E-07 -1 0
vn -1 0 0
vn -1 0 0
vn -1 0 0
vn -1 0 0
vn 1 0 0
vn 1 0 0
vn 1 0 0
vn 1 0 0

vt 0 0
vt -1.4834 0
vt 0 1.01465
vt -1.4834 1.01465
vt 0 0
vt -1 0
vt 0 1.01465
vt -1 1.01465
vt 1.4834 0
vt 0 0
vt 1.4834 1.01465
vt 0 1.01465
vt 1 0
vt 0 0
vt 1 1.01465
vt 0 1.01465
vt 0 0
vt 1.4834 0
vt 0 -1
vt 1.4834 -1
vt 0 -1
vt -1.4834 -1
vt 0 0
vt -1.4834 0
vt -0.09054941 1.042512
vt -1.403841 1.042512
vt -0.09054941 2.395902
vt -1.403841 2.395902
vt 1 1.01465
vt 0 1.01465
vt 1 2.470137
vt 0 2.470137
vt 0 1.01465
vt -1 1.01465
vt 0 2.470137
vt -1 2.470137
vt 1.4834 1.01465
vt 0 1.01465
vt 1.4834 2.470137
vt 0 2.470137
vt 0 0.9985945
vt -1.4834 0.9985945
vt -0.09054941 1.026904
vt -1.403841 1.026904
vt 0 2.470137
vt 0 1.01465
vt -0.09068826 2.395902
vt -0.09068826 1.042512
vt -1.480461 1.01465
vt -1.480461 2.470137
vt -1.400743 1.042512
vt -1.400743 2.395902
vt -1.4834 2.464516
vt 0 2.464516
vt -1.403841 2.390113
vt -0.09054941 2.390113
vt 0.09054941 0.005016327
vt 1.403841 0.005016327
vt 0.09054941 -0.7299042
vt 1.403841 -0.7299042
vt 0.005016327 2.395902
vt 0.005016327 1.042512
vt -0.7299042 2.395902
vt -0.7299042 1.042512
vt -0.005016327 1.042512
vt -0.005016327 2.395902
vt 0.7299042 1.042512
vt 0.7299042 2.395902
vt -1.403841 0.005016327
vt -0.09054941 0.005016327
vt -1.403841 -0.7299042
vt -0.09054941 -0.7299042
vt 0.3511772 -0.3232403
vt -0.3177099 -0.3232403
vt 0.3511772 0.4303129
vt -0.3177099 0.4303129
vt -0.004003525 -0.3232403
vt -0.04316711 -0.3232403
vt -0.004003525 0.4303129
vt -0.04316711 0.4303129
vt 0.3177099 -0.3232403
vt -0.3511772 -0.3232403
vt 0.3177099 0.4303129
vt -0.3511772 0.4303129
vt 0.04316711 -0.3232403
vt 0.004003525 -0.3232403
vt 0.04316711 0.4303129
vt 0.004003525 0.4303129
vt -0.3511772 -0.004003525
vt 0.3177099 -0.004003525
vt -0.3511772 -0.04316711
vt 0.3177099 -0.04316711
vt 0.3511772 -0.04316711
vt -0.3177099 -0.04316711
vt 0.3511772 -0.004003525
vt -0.3177099 -0.004003525
vt 0.3511772 -0.3232403
vt -0.3177099 -0.3232403
vt 0.3511772 0.4303129
vt -0.3177099 0.4303129
vt -0.004003525 -0.3232403
vt -0.04316711 -0.3232403
vt -0.004003525 0.4303129
vt -0.04316711 0.4303129
vt 0.3177099 -0.3232403
vt -0.3511772 -0.3232403
vt 0.3177099 0.4303129
vt -0.3511772 0.4303129
vt 0.04316711 -0.3232403
vt 0.004003525 -0.3232403
vt 0.04316711 0.4303129
vt 0.004003525 0.4303129
vt -0.3511772 -0.004003525
vt 0.3177099 -0.004003525
vt -0.3511772 -0.04316711
vt 0.3177099 -0.04316711
vt 0.3511772 -0.04316711
vt -0.3177099 -0.04316711
vt 0.3511772 -0.004003525
vt -0.3177099 -0.004003525
vt 0.0417881 -0.5
vt -0.04178905 -0.5
vt 0.0417881 0.87655
vt -0.04178905 0.87655
vt 0.3120766 -0.5
vt -0.3120766 -0.5
vt 0.3120766 0.87655
vt -0.3120766 0.87655
vt 0.04178905 -0.5
vt -0.0417881 -0.5
vt 0.04178905 0.87655
vt -0.0417881 0.87655
vt 0.3120766 -0.5
vt -0.3120766 -0.5
vt 0.3120766 0.87655
vt -0.3120766 0.87655
vt -0.0417881 0.3120766
vt 0.04178905 0.3120766
vt -0.0417881 -0.3120766
vt 0.04178905 -0.3120766
vt 0.0417881 -0.3120766
vt -0.04178905 -0.3120766
vt 0.0417881 0.3120766
vt -0.04178905 0.3120766
vt 0.0417881 -0.5
vt -0.04178905 -0.5
vt 0.04178835 0.4468443
vt -0.04178881 0.4468443
vt 0.3120766 -0.5
vt -0.3120766 -0.5
vt 0.3120766 0.4468443
vt -0.3120766 0.4468443
vt 0.04178905 -0.5
vt -0.0417881 -0.5
vt 0.04178881 0.4468443
vt -0.04178835 0.4468443
vt 0.3120766 -0.5
vt -0.3120766 -0.5
vt 0.3120766 0.4468443
vt -0.3120766 0.4468443
vt -0.04178835 0.3120766
vt 0.04178881 0.3120766
vt -0.04178835 -0.3120766
vt 0.04178881 -0.3120766
vt 0.0417881 -0.3120766
vt -0.04178905 -0.3120766
vt 0.0417881 0.3120766
vt -0.04178905 0.3120766
vt 0.0417881 -0.5
vt -0.04178905 -0.5
vt 0.04178835 0.4468443
vt -0.04178881 0.4468443
vt 0.3120766 -0.5
vt -0.3120766 -0.5
vt 0.3120766 0.4468443
vt -0.3120766 0.4468443
vt 0.04178905 -0.5
vt -0.0417881 -0.5
vt 0.04178881 0.4468443
vt -0.04178835 0.4468443
vt 0.3120766 -0.5
vt -0.3120766 -0.5
vt 0.3120766 0.4468443
vt -0.3120766 0.4468443
vt -0.04178835 0.3120766
vt 0.04178881 0.3120766
vt -0.04178835 -0.3120766
vt 0.04178881 -0.3120766
vt 0.0417881 -0.3120766
vt -0.04178905 -0.3120766
vt 0.0417881 0.3120766
vt -0.04178905 0.3120766
vt 0.0417881 -0.1293554
vt -0.04178906 -0.1293554
vt 0.04178835 0.2418187
vt -0.04178881 0.2418187
vt 0.3120766 -0.1293555
vt -0.3120766 -0.1293555
vt 0.3120766 0.2418186
vt -0.3120766 0.2418186
vt 0.04178906 -0.1293554
vt -0.0417881 -0.1293554
vt 0.04178881 0.2418187
vt -0.04178835 0.2418187
vt 0.3120766 -0.1293554
vt -0.3120766 -0.1293554
vt 0.3120766 0.2418187
vt -0.3120766 0.2418187
vt -0.04178835 0.3120766
vt 0.04178881 0.3120766
vt -0.04178835 -0.3120766
vt 0.04178881 -0.3120766
vt 0.0417881 -0.3120766
vt -0.04178906 -0.3120766
vt 0.0417881 0.3120766
vt -0.04178906 0.3120766

g Bookcase(A)
usemtl Default_Prototype
f 3/3/3 4/4/4 2/2/2 1/1/1
f 7/7/7 8/8/8 6/6/6 5/5/5
f 11/11/11 12/12/12 10/10/10 9/9/9
f 15/15/15 16/16/16 14/14/14 13/13/13
f 19/19/19 20/20/20 18/18/18 17/17/17
f 23/23/23 24/24/24 22/22/22 21/21/21
f 27/27/27 28/28/28 26/26/26 25/25/25
f 31/31/31 32/32/32 30/30/30 29/29/29
f 35/35/35 36/36/36 34/34/34 33/33/33
f 39/39/39 40/40/40 38/38/38 37/37/37
f 43/43/43 44/44/44 42/42/42 41/41/41
f 47/47/47 48/48/48 46/46/46 45/45/45
f 51/51/51 52/52/52 50/50/50 49/49/49
f 55/55/55 56/56/56 54/54/54 53/53/53
f 59/59/59 60/60/60 58/58/58 57/57/57
f 63/63/63 64/64/64 62/62/62 61/61/61
f 67/67/67 68/68/68 66/66/66 65/65/65
f 71/71/71 72/72/72 70/70/70 69/69/69
f 75/75/75 76/76/76 74/74/74 73/73/73
f 79/79/79 80/80/80 78/78/78 77/77/77
f 83/83/83 84/84/84 82/82/82 81/81/81
f 87/87/87 88/88/88 86/86/86 85/85/85
f 91/91/91 92/92/92 90/90/90 89/89/89
f 95/95/95 96/96/96 94/94/94 93/93/93
f 99/99/99 100/100/100 98/98/98 97/97/97
f 103/103/103 104/104/104 102/102/102 101/101/101
f 107/107/107 108/108/108 106/106/106 105/105/105
f 111/111/111 112/112/112 110/110/110 109/109/109
f 115/115/115 116/116/116 114/114/114 113/113/113
f 119/119/119 120/120/120 118/118/118 117/117/117
f 123/123/123 124/124/124 122/122/122 121/121/121
f 127/127/127 128/128/128 126/126/126 125/125/125
f 131/131/131 132/132/132 130/130/130 129/129/129
f 135/135/135 136/136/136 134/134/134 133/133/133
f 139/139/139 140/140/140 138/138/138 137/137/137
f 143/143/143 144/144/144 142/142/142 141/141/141
f 147/147/147 148/148/148 146/146/146 145/145/145
f 151/151/151 152/152/152 150/150/150 149/149/149
f 155/155/155 156/156/156 154/154/154 153/153/153
f 159/159/159 160/160/160 158/158/158 157/157/157
f 163/163/163 164/164/164 162/162/162 161/161/161
f 167/167/167 168/168/168 166/166/166 165/165/165
f 171/171/171 172/172/172 170/170/170 169/169/169
f 175/175/175 176/176/176 174/174/174 173/173/173
f 179/179/179 180/180/180 178/178/178 177/177/177
f 183/183/183 184/184/184 182/182/182 181/181/181
f 187/187/187 188/188/188 186/186/186 185/185/185
f 191/191/191 192/192/192 190/190/190 189/189/189
f 195/195/195 196/196/196 194/194/194 193/193/193
f 199/199/199 200/200/200 198/198/198 197/197/197
f 203/203/203 204/204/204 202/202/202 201/201/201
f 207/207/207 208/208/208 206/206/206 205/205/205
f 211/211/211 212/212/212 210/210/210 209/209/209
f 215/215/215 216/216/216 214/214/214 213/213/213

