# Exported from ProBuilder
# http://www.procore3d.com/probuilder
# 5/4/2018 10:16:57 AM

mtllib ./Chair.mtl
o Chair

g Chair
v -0.671288 1.346546 0.8717101
v -0.671288 1.408449 0.8717101
v -0.02907693 1.346546 0.8717101
v -0.02907693 1.408448 0.8717101
v -0.671288 1.408449 0.8717101
v -0.671288 1.408449 0.8133109
v -0.02907693 1.408448 0.8717101
v -0.02907693 1.408448 0.8133109
v -0.671288 1.408449 0.8133109
v -0.671288 1.346546 0.8133109
v -0.02907693 1.408448 0.8133109
v -0.02907693 1.346546 0.8133109
v -0.671288 1.346546 0.8133109
v -0.671288 1.346546 0.8717101
v -0.02907693 1.346546 0.8133109
v -0.02907693 1.346546 0.8717101
v -0.02907693 1.346546 0.8717101
v -0.02907693 1.408448 0.8717101
v -0.02907693 1.346546 0.8133109
v -0.02907693 1.408448 0.8133109
v -0.671288 1.346546 0.8133109
v -0.671288 1.408449 0.8133109
v -0.671288 1.346546 0.8717101
v -0.671288 1.408449 0.8717101
v 0.044765 0.04002297 0.8768008
v -0.05876493 0.04002297 0.8768008
v 0.044765 1.907977 0.8768008
v -0.05876493 1.907977 0.8768008
v -0.05876493 0.04002297 0.8768008
v -0.05876493 0.04002297 0.811312
v -0.05876493 1.907977 0.8768008
v -0.05876493 1.907977 0.811312
v -0.05876493 0.04002297 0.811312
v 0.044765 0.04002297 0.811312
v -0.05876493 1.907977 0.811312
v 0.044765 1.907977 0.811312
v 0.044765 0.04002297 0.811312
v 0.044765 0.04002297 0.8768008
v 0.044765 1.907977 0.811312
v 0.044765 1.907977 0.8768008
v 0.044765 1.907977 0.8768008
v -0.05876493 1.907977 0.8768008
v 0.044765 1.907977 0.811312
v -0.05876493 1.907977 0.811312
v 0.044765 0.04002297 0.811312
v -0.05876493 0.04002297 0.811312
v 0.044765 0.04002297 0.8768008
v -0.05876493 0.04002297 0.8768008
v -0.5448109 0.04002297 0.03280029
v -0.7077643 0.04002297 0.03280029
v -0.5448109 0.7864214 0.03280029
v -0.7077643 0.7864214 0.03280029
v -0.7077643 0.04002297 0.03280029
v -0.7077643 0.04002297 -0.03268853
v -0.7077643 0.7864214 0.03280029
v -0.7077643 0.7864214 -0.03268853
v -0.7077643 0.04002297 -0.03268853
v -0.5448109 0.04002297 -0.03268853
v -0.7077643 0.7864214 -0.03268853
v -0.5448109 0.7864214 -0.03268853
v -0.5448109 0.04002297 -0.03268853
v -0.5448109 0.04002297 0.03280029
v -0.5448109 0.7864214 -0.03268853
v -0.5448109 0.7864214 0.03280029
v -0.5448109 0.7864214 0.03280029
v -0.7077643 0.7864214 0.03280029
v -0.5448109 0.7864214 -0.03268853
v -0.7077643 0.7864214 -0.03268853
v -0.5448109 0.04002297 -0.03268853
v -0.7077643 0.04002297 -0.03268853
v -0.5448109 0.04002297 0.03280029
v -0.7077643 0.04002297 0.03280029
v -0.7080321 0.2925458 -0.0271031
v -0.7080321 0.4554992 -0.0271031
v -0.7080321 0.2925458 0.8720573
v -0.7080321 0.4554992 0.8720573
v -0.7080321 0.4554992 -0.0271031
v -0.6425433 0.4554992 -0.0271031
v -0.7080321 0.4554992 0.8720573
v -0.6425433 0.4554992 0.8720573
v -0.6425433 0.4554992 -0.0271031
v -0.6425433 0.2925458 -0.0271031
v -0.6425433 0.4554992 0.8720573
v -0.6425433 0.2925458 0.8720573
v -0.6425433 0.2925458 -0.0271031
v -0.7080321 0.2925458 -0.0271031
v -0.6425433 0.2925458 0.8720573
v -0.7080321 0.2925458 0.8720573
v -0.7080321 0.2925458 0.8720573
v -0.7080321 0.4554992 0.8720573
v -0.6425433 0.2925458 0.8720573
v -0.6425433 0.4554992 0.8720573
v -0.6425433 0.2925458 -0.0271031
v -0.6425433 0.4554992 -0.0271031
v -0.7080321 0.2925458 -0.0271031
v -0.7080321 0.4554992 -0.0271031
v -0.671288 1.753546 0.8717101
v -0.671288 1.815449 0.8717101
v -0.02907693 1.753546 0.8717101
v -0.02907693 1.815449 0.8717101
v -0.671288 1.815449 0.8717101
v -0.671288 1.815449 0.8133109
v -0.02907693 1.815449 0.8717101
v -0.02907693 1.815449 0.8133109
v -0.671288 1.815449 0.8133109
v -0.671288 1.753546 0.8133109
v -0.02907693 1.815449 0.8133109
v -0.02907693 1.753546 0.8133109
v -0.671288 1.753546 0.8133109
v -0.671288 1.753546 0.8717101
v -0.02907693 1.753546 0.8133109
v -0.02907693 1.753546 0.8717101
v -0.02907693 1.753546 0.8717101
v -0.02907693 1.815449 0.8717101
v -0.02907693 1.753546 0.8133109
v -0.02907693 1.815449 0.8133109
v -0.671288 1.753546 0.8133109
v -0.671288 1.815449 0.8133109
v -0.671288 1.753546 0.8717101
v -0.671288 1.815449 0.8717101
v -0.671288 1.570546 0.8717101
v -0.671288 1.632449 0.8717101
v -0.02907693 1.570546 0.8717101
v -0.02907693 1.632449 0.8717101
v -0.671288 1.632449 0.8717101
v -0.671288 1.632449 0.8133109
v -0.02907693 1.632449 0.8717101
v -0.02907693 1.632449 0.8133109
v -0.671288 1.632449 0.8133109
v -0.671288 1.570546 0.8133109
v -0.02907693 1.632449 0.8133109
v -0.02907693 1.570546 0.8133109
v -0.671288 1.570546 0.8133109
v -0.671288 1.570546 0.8717101
v -0.02907693 1.570546 0.8133109
v -0.02907693 1.570546 0.8717101
v -0.02907693 1.570546 0.8717101
v -0.02907693 1.632449 0.8717101
v -0.02907693 1.570546 0.8133109
v -0.02907693 1.632449 0.8133109
v -0.671288 1.570546 0.8133109
v -0.671288 1.632449 0.8133109
v -0.671288 1.570546 0.8717101
v -0.671288 1.632449 0.8717101
v 0.02271196 0.6870229 0.8130572
v -0.7243935 0.6870229 0.8130572
v 0.02271196 0.8208197 0.8130572
v -0.7243935 0.8208197 0.8130572
v -0.7243935 0.6870229 0.8130572
v -0.7243935 0.6870229 -0.07280073
v -0.7243935 0.8208197 0.8130572
v -0.7243935 0.8208197 -0.07280073
v -0.7243935 0.6870229 -0.07280073
v 0.02271196 0.6870229 -0.07280073
v -0.7243935 0.8208197 -0.07280073
v 0.02271196 0.8208197 -0.07280073
v 0.02271196 0.6870229 -0.07280073
v 0.02271196 0.6870229 0.8130572
v 0.02271196 0.8208197 -0.07280073
v 0.02271196 0.8208197 0.8130572
v -0.02158093 0.8651127 0.7687643
v -0.6801007 0.8651127 0.7687643
v -0.02158093 0.8651127 -0.0285078
v -0.6801007 0.8651127 -0.0285078
v 0.02271196 0.6870229 -0.07280073
v -0.7243935 0.6870229 -0.07280073
v 0.02271196 0.6870229 0.8130572
v -0.7243935 0.6870229 0.8130572
v -0.7243935 0.8208197 0.8130572
v 0.02271196 0.8208197 0.8130572
v -0.6801007 0.8651127 0.7687643
v -0.02158093 0.8651127 0.7687643
v 0.02271196 0.8208197 0.8130572
v 0.02271196 0.8208197 -0.07280073
v -0.02158093 0.8651127 0.7687643
v -0.02158093 0.8651127 -0.0285078
v -0.7243935 0.8208197 -0.07280073
v -0.7243935 0.8208197 0.8130572
v -0.6801007 0.8651127 -0.0285078
v -0.6801007 0.8651127 0.7687643
v 0.02271196 0.8208197 -0.07280073
v -0.7243935 0.8208197 -0.07280073
v -0.02158093 0.8651127 -0.0285078
v -0.6801007 0.8651127 -0.0285078
v -0.03403139 0.2925458 -0.006145149
v -0.03403139 0.4554992 -0.006145149
v -0.03403139 0.2925458 0.8720573
v -0.03403139 0.4554992 0.8720573
v -0.03403139 0.4554992 -0.006145149
v 0.03145742 0.4554992 -0.006145149
v -0.03403139 0.4554992 0.8720573
v 0.03145742 0.4554992 0.8720573
v 0.03145742 0.4554992 -0.006145149
v 0.03145742 0.2925458 -0.006145149
v 0.03145742 0.4554992 0.8720573
v 0.03145742 0.2925458 0.8720573
v 0.03145742 0.2925458 -0.006145149
v -0.03403139 0.2925458 -0.006145149
v 0.03145742 0.2925458 0.8720573
v -0.03403139 0.2925458 0.8720573
v -0.03403139 0.2925458 0.8720573
v -0.03403139 0.4554992 0.8720573
v 0.03145742 0.2925458 0.8720573
v 0.03145742 0.4554992 0.8720573
v 0.03145742 0.2925458 -0.006145149
v 0.03145742 0.4554992 -0.006145149
v -0.03403139 0.2925458 -0.006145149
v -0.03403139 0.4554992 -0.006145149
v -0.6252351 0.04002297 0.8768008
v -0.728765 0.04002297 0.8768008
v -0.6252351 1.907977 0.8768008
v -0.728765 1.907977 0.8768008
v -0.728765 0.04002297 0.8768008
v -0.728765 0.04002297 0.811312
v -0.728765 1.907977 0.8768008
v -0.728765 1.907977 0.811312
v -0.728765 0.04002297 0.811312
v -0.6252351 0.04002297 0.811312
v -0.728765 1.907977 0.811312
v -0.6252351 1.907977 0.811312
v -0.6252351 0.04002297 0.811312
v -0.6252351 0.04002297 0.8768008
v -0.6252351 1.907977 0.811312
v -0.6252351 1.907977 0.8768008
v -0.6252351 1.907977 0.8768008
v -0.728765 1.907977 0.8768008
v -0.6252351 1.907977 0.811312
v -0.728765 1.907977 0.811312
v -0.6252351 0.04002297 0.811312
v -0.728765 0.04002297 0.811312
v -0.6252351 0.04002297 0.8768008
v -0.728765 0.04002297 0.8768008
v 0.01518914 0.04002297 0.02580091
v -0.1477642 0.04002297 0.02580091
v 0.01518914 0.7855214 0.02580091
v -0.1477642 0.7855214 0.02580091
v -0.1477642 0.04002297 0.02580091
v -0.1477642 0.04002297 -0.0396879
v -0.1477642 0.7855214 0.02580091
v -0.1477642 0.7855214 -0.0396879
v -0.1477642 0.04002297 -0.0396879
v 0.01518914 0.04002297 -0.0396879
v -0.1477642 0.7855214 -0.0396879
v 0.01518914 0.7855214 -0.0396879
v 0.01518914 0.04002297 -0.0396879
v 0.01518914 0.04002297 0.02580091
v 0.01518914 0.7855214 -0.0396879
v 0.01518914 0.7855214 0.02580091
v 0.01518914 0.7855214 0.02580091
v -0.1477642 0.7855214 0.02580091
v 0.01518914 0.7855214 -0.0396879
v -0.1477642 0.7855214 -0.0396879
v 0.01518914 0.04002297 -0.0396879
v -0.1477642 0.04002297 -0.0396879
v 0.01518914 0.04002297 0.02580091
v -0.1477642 0.04002297 0.02580091

vn 0 0 1
vn 0 0 1
vn 0 0 1
vn 0 0 1
vn 1.856232E-07 1 0
vn 1.856232E-07 1 0
vn 1.856232E-07 1 0
vn 1.856232E-07 1 0
vn 0 0 -1
vn 0 0 -1
vn 0 0 -1
vn 0 0 -1
vn -1.856232E-07 -1 0
vn -1.856232E-07 -1 0
vn -1.856232E-07 -1 0
vn -1.856232E-07 -1 0
vn 1 0 0
vn 1 0 0
vn 1 0 0
vn 1 0 0
vn -1 0 0
vn -1 0 0
vn -1 0 0
vn -1 0 0
vn 0 0 1
vn 0 0 1
vn 0 0 1
vn 0 0 1
vn -1 0 0
vn -1 0 0
vn -1 0 0
vn -1 0 0
vn 0 0 -1
vn 0 0 -1
vn 0 0 -1
vn 0 0 -1
vn 1 0 0
vn 1 0 0
vn 1 0 0
vn 1 0 0
vn 0 1 0
vn 0 1 0
vn 0 1 0
vn 0 1 0
vn 0 -1 0
vn 0 -1 0
vn 0 -1 0
vn 0 -1 0
vn 0 0 1
vn 0 0 1
vn 0 0 1
vn 0 0 1
vn -1 0 0
vn -1 0 0
vn -1 0 0
vn -1 0 0
vn 0 0 -1
vn 0 0 -1
vn 0 0 -1
vn 0 0 -1
vn 1 0 0
vn 1 0 0
vn 1 0 0
vn 1 0 0
vn 0 1 0
vn 0 1 0
vn 0 1 0
vn 0 1 0
vn 0 -1 0
vn 0 -1 0
vn 0 -1 0
vn 0 -1 0
vn -1 0 0
vn -1 0 0
vn -1 0 0
vn -1 0 0
vn 0 1 0
vn 0 1 0
vn 0 1 0
vn 0 1 0
vn 1 0 0
vn 1 0 0
vn 1 0 0
vn 1 0 0
vn 0 -1 0
vn 0 -1 0
vn 0 -1 0
vn 0 -1 0
vn 0 0 1
vn 0 0 1
vn 0 0 1
vn 0 0 1
vn 0 0 -1
vn 0 0 -1
vn 0 0 -1
vn 0 0 -1
vn 0 0 1
vn 0 0 1
vn 0 0 1
vn 0 0 1
vn 1.856232E-07 1 0
vn 1.856232E-07 1 0
vn 1.856232E-07 1 0
vn 1.856232E-07 1 0
vn 0 0 -1
vn 0 0 -1
vn 0 0 -1
vn 0 0 -1
vn -1.856232E-07 -1 0
vn -1.856232E-07 -1 0
vn -1.856232E-07 -1 0
vn -1.856232E-07 -1 0
vn 1 0 0
vn 1 0 0
vn 1 0 0
vn 1 0 0
vn -1 0 0
vn -1 0 0
vn -1 0 0
vn -1 0 0
vn 0 0 1
vn 0 0 1
vn 0 0 1
vn 0 0 1
vn 1.856232E-07 1 0
vn 1.856232E-07 1 0
vn 1.856232E-07 1 0
vn 1.856232E-07 1 0
vn 0 0 -1
vn 0 0 -1
vn 0 0 -1
vn 0 0 -1
vn -1.856232E-07 -1 0
vn -1.856232E-07 -1 0
vn -1.856232E-07 -1 0
vn -1.856232E-07 -1 0
vn 1 0 0
vn 1 0 0
vn 1 0 0
vn 1 0 0
vn -1 0 0
vn -1 0 0
vn -1 0 0
vn -1 0 0
vn 0 0 1
vn 0 0 1
vn 0 0 1
vn 0 0 1
vn -1 0 0
vn -1 0 0
vn -1 0 0
vn -1 0 0
vn 0 0 -1
vn 0 0 -1
vn 0 0 -1
vn 0 0 -1
vn 1 0 0
vn 1 0 0
vn 1 0 0
vn 1 0 0
vn 0 1 0
vn 0 1 0
vn 0 1 0
vn 0 1 0
vn 0 -1 0
vn 0 -1 0
vn 0 -1 0
vn 0 -1 0
vn 0 0.7071063 0.7071072
vn 0 0.7071064 0.7071072
vn 0 0.7071064 0.7071072
vn 0 0.7071064 0.7071073
vn 0.707107 0.7071065 0
vn 0.707107 0.7071066 0
vn 0.707107 0.7071066 0
vn 0.7071069 0.7071065 0
vn -0.7071077 0.7071059 0
vn -0.7071077 0.7071059 0
vn -0.7071077 0.7071059 0
vn -0.7071078 0.7071058 0
vn 0 0.7071068 -0.7071068
vn 0 0.7071068 -0.7071068
vn 0 0.7071068 -0.7071068
vn 0 0.7071067 -0.7071067
vn -1 0 0
vn -1 0 0
vn -1 0 0
vn -1 0 0
vn 0 1 0
vn 0 1 0
vn 0 1 0
vn 0 1 0
vn 1 0 0
vn 1 0 0
vn 1 0 0
vn 1 0 0
vn 0 -1 0
vn 0 -1 0
vn 0 -1 0
vn 0 -1 0
vn 0 0 1
vn 0 0 1
vn 0 0 1
vn 0 0 1
vn 0 0 -1
vn 0 0 -1
vn 0 0 -1
vn 0 0 -1
vn 0 0 1
vn 0 0 1
vn 0 0 1
vn 0 0 1
vn -1 0 0
vn -1 0 0
vn -1 0 0
vn -1 0 0
vn 0 0 -1
vn 0 0 -1
vn 0 0 -1
vn 0 0 -1
vn 1 0 0
vn 1 0 0
vn 1 0 0
vn 1 0 0
vn 0 1 0
vn 0 1 0
vn 0 1 0
vn 0 1 0
vn 0 -1 0
vn 0 -1 0
vn 0 -1 0
vn 0 -1 0
vn 0 0 0.9999999
vn 0 0 0.9999999
vn 0 0 0.9999999
vn 0 0 0.9999999
vn -1 0 0
vn -1 0 0
vn -1 0 0
vn -1 0 0
vn 0 0 -0.9999999
vn 0 0 -0.9999999
vn 0 0 -0.9999999
vn 0 0 -0.9999999
vn 1 0 0
vn 1 0 0
vn 1 0 0
vn 1 0 0
vn 0 1 0
vn 0 1 0
vn 0 1 0
vn 0 1 0
vn 0 -1 0
vn 0 -1 0
vn 0 -1 0
vn 0 -1 0

vt 0.08147717 -0.4999999
vt 0.01957441 -0.4999999
vt 0.08147717 0.1422111
vt 0.01957442 0.1422111
vt 0.02565384 -0.4999999
vt -0.03274536 -0.4999999
vt 0.02565384 0.1422111
vt -0.03274536 0.1422111
vt -0.01957441 -0.4999999
vt -0.08147717 -0.4999999
vt -0.01957442 0.1422111
vt -0.08147717 0.1422111
vt 0.03274536 -0.4999999
vt -0.02565384 -0.4999999
vt 0.03274536 0.1422111
vt -0.02565384 0.1422111
vt -0.08147717 0.02565384
vt -0.01957442 0.02565384
vt -0.08147717 -0.03274536
vt -0.01957442 -0.03274536
vt 0.08147717 -0.03274536
vt 0.01957441 -0.03274536
vt 0.08147717 0.02565384
vt 0.01957441 0.02565384
vt 0.02205372 -0.4999999
vt -0.08147621 -0.4999999
vt 0.02205372 1.367954
vt -0.08147621 1.367954
vt 0.03274345 -0.4999999
vt -0.03274536 -0.4999999
vt 0.03274345 1.367954
vt -0.03274536 1.367954
vt 0.08147621 -0.4999999
vt -0.02205372 -0.4999999
vt 0.08147621 1.367954
vt -0.02205372 1.367954
vt 0.03274536 -0.4999999
vt -0.03274345 -0.4999999
vt 0.03274536 1.367954
vt -0.03274345 1.367954
vt -0.02205372 0.03274345
vt 0.08147621 0.03274345
vt -0.02205372 -0.03274536
vt 0.08147621 -0.03274536
vt 0.02205372 -0.03274536
vt -0.08147621 -0.03274536
vt 0.02205372 0.03274345
vt -0.08147621 0.03274345
vt 0.08147717 -0.4999999
vt -0.08147621 -0.4999999
vt 0.08147717 0.2463986
vt -0.08147621 0.2463986
vt 0.03274345 -0.4999999
vt -0.03274536 -0.4999999
vt 0.03274345 0.2463986
vt -0.03274536 0.2463986
vt 0.08147621 -0.4999999
vt -0.08147717 -0.4999999
vt 0.08147621 0.2463986
vt -0.08147717 0.2463986
vt 0.03274536 -0.4999999
vt -0.03274345 -0.4999999
vt 0.03274536 0.2463986
vt -0.03274345 0.2463986
vt -0.08147717 0.03274345
vt 0.08147621 0.03274345
vt -0.08147717 -0.03274536
vt 0.08147621 -0.03274536
vt 0.08147717 -0.03274536
vt -0.08147621 -0.03274536
vt 0.08147717 0.03274345
vt -0.08147621 0.03274345
vt 0.08147717 -0.3991603
vt -0.08147621 -0.3991603
vt 0.08147717 0.5000001
vt -0.08147621 0.5000001
vt 0.03274345 -0.3991603
vt -0.03274536 -0.3991603
vt 0.03274345 0.5000001
vt -0.03274536 0.5000001
vt 0.08147621 -0.3991603
vt -0.08147717 -0.3991603
vt 0.08147621 0.5000001
vt -0.08147717 0.5000001
vt 0.03274536 -0.3991603
vt -0.03274345 -0.3991603
vt 0.03274536 0.5000001
vt -0.03274345 0.5000001
vt -0.08147717 0.03274345
vt 0.08147621 0.03274345
vt -0.08147717 -0.03274536
vt 0.08147621 -0.03274536
vt 0.08147717 -0.03274536
vt -0.08147621 -0.03274536
vt 0.08147717 0.03274345
vt -0.08147621 0.03274345
vt 0.08147717 -0.4999999
vt 0.01957441 -0.4999999
vt 0.08147717 0.1422111
vt 0.01957442 0.1422111
vt 0.02565384 -0.4999999
vt -0.03274536 -0.4999999
vt 0.02565384 0.1422111
vt -0.03274536 0.1422111
vt -0.01957441 -0.4999999
vt -0.08147717 -0.4999999
vt -0.01957442 0.1422111
vt -0.08147717 0.1422111
vt 0.03274536 -0.4999999
vt -0.02565384 -0.4999999
vt 0.03274536 0.1422111
vt -0.02565384 0.1422111
vt -0.08147717 0.02565384
vt -0.01957442 0.02565384
vt -0.08147717 -0.03274536
vt -0.01957442 -0.03274536
vt 0.08147717 -0.03274536
vt 0.01957441 -0.03274536
vt 0.08147717 0.02565384
vt 0.01957441 0.02565384
vt 0.08147717 -0.4999999
vt 0.01957441 -0.4999999
vt 0.08147717 0.1422111
vt 0.01957442 0.1422111
vt 0.02565384 -0.4999999
vt -0.03274536 -0.4999999
vt 0.02565384 0.1422111
vt -0.03274536 0.1422111
vt -0.01957441 -0.4999999
vt -0.08147717 -0.4999999
vt -0.01957442 0.1422111
vt -0.08147717 0.1422111
vt 0.03274536 -0.4999999
vt -0.02565384 -0.4999999
vt 0.03274536 0.1422111
vt -0.02565384 0.1422111
vt -0.08147717 0.02565384
vt -0.01957442 0.02565384
vt -0.08147717 -0.03274536
vt -0.01957442 -0.03274536
vt 0.08147717 -0.03274536
vt 0.01957441 -0.03274536
vt 0.08147717 0.02565384
vt 0.01957441 0.02565384
vt 0 0
vt -1 0
vt 0 0.1510365
vt -1 0.1510365
vt 0 0
vt -1 0
vt 0 0.1510365
vt -1 0.1510365
vt 1 0
vt 0 0
vt 1 0.1510365
vt 0 0.1510365
vt 1 0
vt 0 0
vt 1 0.1510365
vt 0 0.1510365
vt 0.05 -0.05
vt 0.95 -0.05
vt 0.05 -0.95
vt 0.95 -0.95
vt 0 -1
vt -0.8433695 -1
vt 0 0
vt -0.8433695 0
vt 0.8433695 -0.1067989
vt 0 -0.1067989
vt 0.7933695 -0.1775096
vt 0.05 -0.1775096
vt 0.1067989 0
vt 0.1067989 -1
vt 0.1775096 -0.05
vt 0.1775096 -0.95
vt 0.4895535 -1
vt 0.4895535 0
vt 0.4188428 -0.95
vt 0.4188428 -0.05
vt 0 -0.600308
vt 0.8433695 -0.600308
vt 0.05 -0.5295973
vt 0.7933695 -0.5295973
vt 0.08147717 -0.3782023
vt -0.08147621 -0.3782023
vt 0.08147717 0.5000001
vt -0.08147621 0.5000001
vt 0.03274345 -0.3782023
vt -0.03274536 -0.3782023
vt 0.03274345 0.5000001
vt -0.03274536 0.5000001
vt 0.08147621 -0.3782023
vt -0.08147717 -0.3782023
vt 0.08147621 0.5000001
vt -0.08147717 0.5000001
vt 0.03274536 -0.3782023
vt -0.03274345 -0.3782023
vt 0.03274536 0.5000001
vt -0.03274345 0.5000001
vt -0.08147717 0.03274345
vt 0.08147621 0.03274345
vt -0.08147717 -0.03274536
vt 0.08147621 -0.03274536
vt 0.08147717 -0.03274536
vt -0.08147621 -0.03274536
vt 0.08147717 0.03274345
vt -0.08147621 0.03274345
vt 0.02205372 -0.4999999
vt -0.08147621 -0.4999999
vt 0.02205372 1.367954
vt -0.08147621 1.367954
vt 0.03274345 -0.4999999
vt -0.03274536 -0.4999999
vt 0.03274345 1.367954
vt -0.03274536 1.367954
vt 0.08147621 -0.4999999
vt -0.02205372 -0.4999999
vt 0.08147621 1.367954
vt -0.02205372 1.367954
vt 0.03274536 -0.4999999
vt -0.03274345 -0.4999999
vt 0.03274536 1.367954
vt -0.03274345 1.367954
vt -0.02205372 0.03274345
vt 0.08147621 0.03274345
vt -0.02205372 -0.03274536
vt 0.08147621 -0.03274536
vt 0.02205372 -0.03274536
vt -0.08147621 -0.03274536
vt 0.02205372 0.03274345
vt -0.08147621 0.03274345
vt 0.08147717 -0.4999999
vt -0.08147621 -0.4999999
vt 0.08147717 0.2454985
vt -0.08147621 0.2454985
vt 0.03274345 -0.4999999
vt -0.03274536 -0.4999999
vt 0.03274345 0.2454985
vt -0.03274536 0.2454985
vt 0.08147621 -0.4999999
vt -0.08147717 -0.4999999
vt 0.08147621 0.2454985
vt -0.08147717 0.2454985
vt 0.03274536 -0.4999999
vt -0.03274345 -0.4999999
vt 0.03274536 0.2454985
vt -0.03274345 0.2454985
vt -0.08147717 0.03274345
vt 0.08147621 0.03274345
vt -0.08147717 -0.03274536
vt 0.08147621 -0.03274536
vt 0.08147717 -0.03274536
vt -0.08147621 -0.03274536
vt 0.08147717 0.03274345
vt -0.08147621 0.03274345

g Chair
usemtl Default_Prototype
f 3/3/3 4/4/4 2/2/2 1/1/1
f 7/7/7 8/8/8 6/6/6 5/5/5
f 11/11/11 12/12/12 10/10/10 9/9/9
f 15/15/15 16/16/16 14/14/14 13/13/13
f 19/19/19 20/20/20 18/18/18 17/17/17
f 23/23/23 24/24/24 22/22/22 21/21/21
f 27/27/27 28/28/28 26/26/26 25/25/25
f 31/31/31 32/32/32 30/30/30 29/29/29
f 35/35/35 36/36/36 34/34/34 33/33/33
f 39/39/39 40/40/40 38/38/38 37/37/37
f 43/43/43 44/44/44 42/42/42 41/41/41
f 47/47/47 48/48/48 46/46/46 45/45/45
f 51/51/51 52/52/52 50/50/50 49/49/49
f 55/55/55 56/56/56 54/54/54 53/53/53
f 59/59/59 60/60/60 58/58/58 57/57/57
f 63/63/63 64/64/64 62/62/62 61/61/61
f 67/67/67 68/68/68 66/66/66 65/65/65
f 71/71/71 72/72/72 70/70/70 69/69/69
f 75/75/75 76/76/76 74/74/74 73/73/73
f 79/79/79 80/80/80 78/78/78 77/77/77
f 83/83/83 84/84/84 82/82/82 81/81/81
f 87/87/87 88/88/88 86/86/86 85/85/85
f 91/91/91 92/92/92 90/90/90 89/89/89
f 95/95/95 96/96/96 94/94/94 93/93/93
f 99/99/99 100/100/100 98/98/98 97/97/97
f 103/103/103 104/104/104 102/102/102 101/101/101
f 107/107/107 108/108/108 106/106/106 105/105/105
f 111/111/111 112/112/112 110/110/110 109/109/109
f 115/115/115 116/116/116 114/114/114 113/113/113
f 119/119/119 120/120/120 118/118/118 117/117/117
f 123/123/123 124/124/124 122/122/122 121/121/121
f 127/127/127 128/128/128 126/126/126 125/125/125
f 131/131/131 132/132/132 130/130/130 129/129/129
f 135/135/135 136/136/136 134/134/134 133/133/133
f 139/139/139 140/140/140 138/138/138 137/137/137
f 143/143/143 144/144/144 142/142/142 141/141/141
f 147/147/147 148/148/148 146/146/146 145/145/145
f 151/151/151 152/152/152 150/150/150 149/149/149
f 155/155/155 156/156/156 154/154/154 153/153/153
f 159/159/159 160/160/160 158/158/158 157/157/157
f 163/163/163 164/164/164 162/162/162 161/161/161
f 167/167/167 168/168/168 166/166/166 165/165/165
f 172/172/172 171/171/171 169/169/169 170/170/170
f 176/176/176 175/175/175 173/173/173 174/174/174
f 180/180/180 179/179/179 177/177/177 178/178/178
f 184/184/184 183/183/183 181/181/181 182/182/182
f 187/187/187 188/188/188 186/186/186 185/185/185
f 191/191/191 192/192/192 190/190/190 189/189/189
f 195/195/195 196/196/196 194/194/194 193/193/193
f 199/199/199 200/200/200 198/198/198 197/197/197
f 203/203/203 204/204/204 202/202/202 201/201/201
f 207/207/207 208/208/208 206/206/206 205/205/205
f 211/211/211 212/212/212 210/210/210 209/209/209
f 215/215/215 216/216/216 214/214/214 213/213/213
f 219/219/219 220/220/220 218/218/218 217/217/217
f 223/223/223 224/224/224 222/222/222 221/221/221
f 227/227/227 228/228/228 226/226/226 225/225/225
f 231/231/231 232/232/232 230/230/230 229/229/229
f 235/235/235 236/236/236 234/234/234 233/233/233
f 239/239/239 240/240/240 238/238/238 237/237/237
f 243/243/243 244/244/244 242/242/242 241/241/241
f 247/247/247 248/248/248 246/246/246 245/245/245
f 251/251/251 252/252/252 250/250/250 249/249/249
f 255/255/255 256/256/256 254/254/254 253/253/253

