# Exported from ProBuilder
# http://www.procore3d.com/probuilder
# 5/4/2018 12:23:13 PM

mtllib ./KingBed.mtl
o KingBed

g KingBed
v -4.345841 0.4391571 2.996768
v -4.34584 0.4391571 0.094191
v -4.345841 0.8194444 2.996768
v -4.34584 0.8194444 0.094191
v -4.295841 0.4391571 0.04419104
v -0.09710721 0.4391571 0.04419155
v -4.295841 0.8194444 0.04419104
v -0.09710721 0.8194444 0.04419155
v -0.04710726 0.4391571 0.09419151
v -0.0471076 0.4391571 2.996769
v -0.04710726 0.8194444 0.09419151
v -0.0471076 0.8194444 2.996769
v -0.09710757 0.4391571 3.046769
v -4.295841 0.4391571 3.046768
v -0.09710757 0.8194444 3.046769
v -4.295841 0.8194444 3.046768
v -4.295841 0.8694444 2.996768
v -4.295841 0.8694444 0.09419101
v -0.09710757 0.8694444 2.996769
v -0.09710722 0.8694444 0.09419151
v -0.09710757 0.3891571 2.996769
v -0.09710722 0.3891571 0.09419151
v -4.295841 0.3891571 2.996768
v -4.295841 0.3891571 0.09419101
v -4.345841 0.4391571 2.996768
v -4.34584 0.4391571 0.094191
v -4.295841 0.3891571 2.996768
v -4.295841 0.3891571 0.09419101
v -4.345841 0.8194444 2.996768
v -4.345841 0.4391571 2.996768
v -4.295841 0.8194444 3.046768
v -4.295841 0.4391571 3.046768
v -4.34584 0.4391571 0.094191
v -4.34584 0.8194444 0.094191
v -4.295841 0.4391571 0.04419104
v -4.295841 0.8194444 0.04419104
v -4.34584 0.8194444 0.094191
v -4.345841 0.8194444 2.996768
v -4.295841 0.8694444 0.09419101
v -4.295841 0.8694444 2.996768
v -4.295841 0.4391571 0.04419104
v -0.09710721 0.4391571 0.04419155
v -4.295841 0.3891571 0.09419101
v -0.09710722 0.3891571 0.09419151
v -0.09710721 0.4391571 0.04419155
v -0.09710721 0.8194444 0.04419155
v -0.04710726 0.4391571 0.09419151
v -0.04710726 0.8194444 0.09419151
v -0.09710721 0.8194444 0.04419155
v -4.295841 0.8194444 0.04419104
v -0.09710722 0.8694444 0.09419151
v -4.295841 0.8694444 0.09419101
v -0.04710726 0.4391571 0.09419151
v -0.0471076 0.4391571 2.996769
v -0.09710722 0.3891571 0.09419151
v -0.09710757 0.3891571 2.996769
v -0.0471076 0.4391571 2.996769
v -0.0471076 0.8194444 2.996769
v -0.09710757 0.4391571 3.046769
v -0.09710757 0.8194444 3.046769
v -0.0471076 0.8194444 2.996769
v -0.04710726 0.8194444 0.09419151
v -0.09710757 0.8694444 2.996769
v -0.09710722 0.8694444 0.09419151
v -0.09710757 0.4391571 3.046769
v -4.295841 0.4391571 3.046768
v -0.09710757 0.3891571 2.996769
v -4.295841 0.3891571 2.996768
v -4.295841 0.8194444 3.046768
v -0.09710757 0.8194444 3.046769
v -4.295841 0.8694444 2.996768
v -0.09710757 0.8694444 2.996769
v -4.345841 0.4391571 2.996768
v -4.295841 0.3891571 2.996768
v -4.295841 0.4391571 3.046768
v -4.34584 0.4391571 0.094191
v -4.295841 0.3891571 0.09419101
v -4.295841 0.4391571 0.04419104
v -4.345841 0.8194444 2.996768
v -4.295841 0.8194444 3.046768
v -4.295841 0.8694444 2.996768
v -4.34584 0.8194444 0.094191
v -4.295841 0.8194444 0.04419104
v -4.295841 0.8694444 0.09419101
v -0.09710721 0.4391571 0.04419155
v -0.09710722 0.3891571 0.09419151
v -0.04710726 0.4391571 0.09419151
v -0.09710721 0.8194444 0.04419155
v -0.04710726 0.8194444 0.09419151
v -0.09710722 0.8694444 0.09419151
v -0.0471076 0.4391571 2.996769
v -0.09710757 0.3891571 2.996769
v -0.09710757 0.4391571 3.046769
v -0.0471076 0.8194444 2.996769
v -0.09710757 0.8194444 3.046769
v -0.09710757 0.8694444 2.996769
v -4.418097 0.01184291 3.103847
v -4.418097 0.01184291 -0.01152072
v -4.418097 0.4561571 3.103847
v -4.418097 0.4561571 -0.01152072
v -4.418097 0.01184291 -0.01152072
v -0.001903079 0.01184291 -0.0115202
v -4.418097 0.4561571 -0.01152072
v -0.001903079 0.4561571 -0.0115202
v -0.001903079 0.01184291 -0.0115202
v -0.00190345 0.01184291 3.103847
v -0.001903079 0.4561571 -0.0115202
v -0.00190345 0.4561571 3.103847
v -0.001903463 0.01184291 3.211521
v -4.418097 0.01184291 3.21152
v -0.001903463 0.4561571 3.211521
v -4.418097 0.4561571 3.21152
v -4.418097 0.4561571 3.103847
v -4.418097 0.4561571 -0.01152072
v -0.00190345 0.4561571 3.103847
v -0.001903079 0.4561571 -0.0115202
v -0.00190345 0.01184291 3.103847
v -0.001903079 0.01184291 -0.0115202
v -4.418097 0.01184291 3.103847
v -4.418097 0.01184291 -0.01152072
v -0.00190345 0.01184291 3.103847
v -4.418097 0.01184291 3.103847
v -0.001903463 0.01184291 3.211521
v -4.418097 0.01184291 3.21152
v -0.00190345 0.4561571 3.103847
v -0.00190345 0.01184291 3.103847
v -0.001903463 0.4561571 3.211521
v -0.001903463 0.01184291 3.211521
v -4.418097 0.01184291 3.103847
v -4.418097 0.4561571 3.103847
v -4.418097 0.01184291 3.21152
v -4.418097 0.4561571 3.21152
v -4.418097 1.456157 3.103847
v -0.00190345 1.456157 3.103847
v -4.418097 1.456157 3.21152
v -0.001903463 1.456157 3.211521
v -4.418097 0.4561571 3.103847
v -0.00190345 0.4561571 3.103847
v -4.418097 1.456157 3.103847
v -0.00190345 1.456157 3.103847
v -4.418097 0.4561571 3.21152
v -4.418097 0.4561571 3.103847
v -4.418097 1.456157 3.21152
v -4.418097 1.456157 3.103847
v -0.00190345 0.4561571 3.103847
v -0.001903463 0.4561571 3.211521
v -0.00190345 1.456157 3.103847
v -0.001903463 1.456157 3.211521
v -0.001903463 0.4561571 3.211521
v -4.418097 0.4561571 3.21152
v -0.001903463 1.456157 3.211521
v -4.418097 1.456157 3.21152

vn -1 0 -1.192093E-07
vn -1 0 -1.192093E-07
vn -1 0 -1.192093E-07
vn -1 0 -1.192093E-07
vn 1.192093E-07 0 -1
vn 1.192093E-07 0 -1
vn 1.192093E-07 0 -1
vn 1.192093E-07 0 -1
vn 1 0 1.192093E-07
vn 1 0 1.192093E-07
vn 1 0 1.192093E-07
vn 1 0 1.192093E-07
vn -1.192093E-07 0 1
vn -1.192093E-07 0 1
vn -1.192093E-07 0 1
vn -1.192093E-07 0 1
vn 0 1 0
vn 0 1 0
vn 0 1 0
vn 0 1 0
vn 0 -1 0
vn 0 -1 0
vn 0 -1 0
vn 0 -1 0
vn -0.7071072 -0.7071064 -8.429374E-08
vn -0.7071072 -0.7071064 -8.429374E-08
vn -0.7071072 -0.7071064 -8.429374E-08
vn -0.7071072 -0.7071064 -8.429374E-08
vn -0.7071069 0 0.7071068
vn -0.7071069 0 0.7071068
vn -0.7071069 0 0.7071068
vn -0.7071069 0 0.7071068
vn -0.7071068 0 -0.7071069
vn -0.7071068 0 -0.7071069
vn -0.7071068 0 -0.7071069
vn -0.7071068 0 -0.7071069
vn -0.7071072 0.7071064 -8.429374E-08
vn -0.7071072 0.7071064 -8.429374E-08
vn -0.7071072 0.7071064 -8.429374E-08
vn -0.7071072 0.7071064 -8.429374E-08
vn 8.429375E-08 -0.7071064 -0.7071072
vn 8.429375E-08 -0.7071064 -0.7071072
vn 8.429375E-08 -0.7071064 -0.7071072
vn 8.429375E-08 -0.7071064 -0.7071072
vn 0.7071069 0 -0.7071068
vn 0.7071069 0 -0.7071068
vn 0.7071069 0 -0.7071068
vn 0.7071069 0 -0.7071068
vn 8.429375E-08 0.7071064 -0.7071072
vn 8.429375E-08 0.7071064 -0.7071072
vn 8.429375E-08 0.7071064 -0.7071072
vn 8.429375E-08 0.7071064 -0.7071072
vn 0.7071072 -0.7071064 8.429374E-08
vn 0.7071072 -0.7071064 8.429374E-08
vn 0.7071072 -0.7071064 8.429374E-08
vn 0.7071072 -0.7071064 8.429374E-08
vn 0.7071068 0 0.7071069
vn 0.7071068 0 0.7071069
vn 0.7071068 0 0.7071069
vn 0.7071068 0 0.7071069
vn 0.7071072 0.7071064 8.429374E-08
vn 0.7071072 0.7071064 8.429374E-08
vn 0.7071072 0.7071064 8.429374E-08
vn 0.7071072 0.7071064 8.429374E-08
vn -8.429375E-08 -0.7071064 0.7071072
vn -8.429375E-08 -0.7071064 0.7071072
vn -8.429375E-08 -0.7071064 0.7071072
vn -8.429375E-08 -0.7071064 0.7071072
vn -8.429375E-08 0.7071064 0.7071072
vn -8.429375E-08 0.7071064 0.7071072
vn -8.429375E-08 0.7071064 0.7071072
vn -8.429375E-08 0.7071064 0.7071072
vn -0.5773506 -0.5773498 0.5773505
vn -0.5773506 -0.5773498 0.5773505
vn -0.5773506 -0.5773498 0.5773505
vn -0.5773505 -0.5773498 -0.5773506
vn -0.5773505 -0.5773498 -0.5773506
vn -0.5773505 -0.5773498 -0.5773506
vn -0.5773506 0.5773498 0.5773505
vn -0.5773506 0.5773498 0.5773505
vn -0.5773506 0.5773498 0.5773505
vn -0.5773505 0.5773498 -0.5773506
vn -0.5773505 0.5773498 -0.5773506
vn -0.5773505 0.5773498 -0.5773506
vn 0.5773506 -0.5773498 -0.5773505
vn 0.5773506 -0.5773498 -0.5773505
vn 0.5773506 -0.5773498 -0.5773505
vn 0.5773506 0.5773498 -0.5773505
vn 0.5773506 0.5773498 -0.5773505
vn 0.5773506 0.5773498 -0.5773505
vn 0.5773505 -0.5773498 0.5773506
vn 0.5773505 -0.5773498 0.5773506
vn 0.5773505 -0.5773498 0.5773506
vn 0.5773505 0.5773498 0.5773506
vn 0.5773505 0.5773498 0.5773506
vn 0.5773505 0.5773498 0.5773506
vn -1 0 -1.192093E-07
vn -1 0 -1.192093E-07
vn -1 0 -1.192093E-07
vn -1 0 -1.192093E-07
vn 1.192093E-07 0 -1
vn 1.192093E-07 0 -1
vn 1.192093E-07 0 -1
vn 1.192093E-07 0 -1
vn 1 0 1.192093E-07
vn 1 0 1.192093E-07
vn 1 0 1.192093E-07
vn 1 0 1.192093E-07
vn -1.192093E-07 0 1
vn -1.192093E-07 0 1
vn -1.192093E-07 0 1
vn -1.192093E-07 0 1
vn 0 1 0
vn 0 1 0
vn 0 1 0
vn 0 1 0
vn 0 -1 0
vn 0 -1 0
vn 0 -1 0
vn 0 -1 0
vn 0 -1 0
vn 0 -1 0
vn 0 -1 0
vn 0 -1 0
vn 1 0 1.192093E-07
vn 1 0 1.192093E-07
vn 1 0 1.192093E-07
vn 1 0 1.192093E-07
vn -1 0 -1.192093E-07
vn -1 0 -1.192093E-07
vn -1 0 -1.192093E-07
vn -1 0 -1.192093E-07
vn 0 1 0
vn 0 1 0
vn 0 1 0
vn 0 1 0
vn 1.192093E-07 0 -1
vn 1.192093E-07 0 -1
vn 1.192093E-07 0 -1
vn 1.192093E-07 0 -1
vn -1 0 -1.192093E-07
vn -1 0 -1.192093E-07
vn -1 0 -1.192093E-07
vn -1 0 -1.192093E-07
vn 1 0 1.192093E-07
vn 1 0 1.192093E-07
vn 1 0 1.192093E-07
vn 1 0 1.192093E-07
vn -1.192093E-07 0 1
vn -1.192093E-07 0 1
vn -1.192093E-07 0 1
vn -1.192093E-07 0 1

vt -0.05 0.05
vt -2.952577 0.05
vt -0.05 0.4302873
vt -2.952577 0.4302873
vt -0.05 0.05
vt -1.42365 0.05
vt -0.05 0.4302873
vt -1.42365 0.4302873
vt 2.952577 0.05
vt 0.05 0.05
vt 2.952577 0.4302873
vt 0.05 0.4302873
vt 1.42365 0.05
vt 0.05 0.05
vt 1.42365 0.4302873
vt 0.05 0.4302873
vt 0.05 -0.05
vt 2.952577 -0.05
vt 0.05 -1.42365
vt 2.952577 -1.42365
vt -0.05 -1.42365
vt -2.952577 -1.42365
vt -0.05 -0.05
vt -2.952577 -0.05
vt 1.451288 0.9118509
vt -1.451288 0.9118509
vt 1.451288 0.8411402
vt -1.451288 0.8411402
vt -0.02008736 0.1901435
vt -0.02008736 -0.1901438
vt 0.05062326 0.1901435
vt 0.05062326 -0.1901438
vt 0.02008736 -0.1901438
vt 0.02008736 0.1901435
vt -0.05062326 -0.1901438
vt -0.05062326 0.1901435
vt -1.451288 -0.9118509
vt 1.451288 -0.9118509
vt -1.451288 -0.8411402
vt 1.451288 -0.8411402
vt 1.429696 0.9271187
vt -2.769037 0.9271187
vt 1.429696 0.8564081
vt -2.769037 0.8564081
vt -0.8964334 -0.1901438
vt -0.8964334 0.1901435
vt -0.967144 -0.1901438
vt -0.967144 0.1901435
vt -2.769037 -0.9271188
vt 1.429696 -0.9271188
vt -2.769037 -0.8564081
vt 1.429696 -0.8564081
vt 1.451288 1.858907
vt -1.451288 1.858907
vt 1.451288 1.788196
vt -1.451288 1.788196
vt 0.967144 -0.1901438
vt 0.967144 0.1901435
vt 0.8964334 -0.1901438
vt 0.8964334 0.1901435
vt -1.451288 -1.858907
vt 1.451288 -1.858907
vt -1.451288 -1.788196
vt 1.451288 -1.788196
vt 2.769037 0.9271187
vt -1.429696 0.9271187
vt 2.769037 0.8564081
vt -1.429696 0.8564081
vt -1.429696 -0.9271188
vt 2.769037 -0.9271188
vt -1.429696 -0.8564081
vt 2.769037 -0.8564081
vt -0.02008736 1.041317
vt 0.01526795 0.9800799
vt 0.05062325 1.041317
vt 0.02008736 1.041317
vt -0.01526795 0.9800799
vt -0.05062325 1.041317
vt -0.02008736 -1.041317
vt 0.05062325 -1.041317
vt 0.01526795 -0.9800797
vt 0.02008736 -1.041317
vt -0.05062325 -1.041317
vt -0.01526795 -0.9800797
vt -0.8964333 1.5881
vt -0.9317886 1.526863
vt -0.9671439 1.5881
vt -0.8964333 -1.5881
vt -0.9671439 -1.5881
vt -0.9317886 -1.526863
vt 0.9671439 1.5881
vt 0.9317886 1.526863
vt 0.8964333 1.5881
vt 0.9671439 -1.5881
vt 0.8964333 -1.5881
vt 0.9317886 -1.526863
vt 2.115367 0.5556858
vt -1 0.5556858
vt 2.115367 1
vt -1 1
vt 0 0.5556858
vt -4.416193 0.5556858
vt 0 1
vt -4.416193 1
vt 1 0.5556858
vt -2.115367 0.5556858
vt 1 1
vt -2.115367 1
vt 4.416193 0.5556858
vt 0 0.5556858
vt 4.416193 1
vt 0 1
vt -2.115367 0
vt 1 0
vt -2.115367 -4.416193
vt 1 -4.416193
vt 2.115367 -4.416193
vt -1 -4.416193
vt 2.115367 0
vt -1 0
vt 2.115367 -4.416193
vt 2.115367 0
vt 2.223041 -4.416193
vt 2.223041 0
vt -2.115367 1
vt -2.115367 0.5556858
vt -2.223041 1
vt -2.223041 0.5556858
vt 2.115367 0.5556858
vt 2.115367 1
vt 2.223041 0.5556858
vt 2.223041 1
vt -2.115367 0
vt -2.115367 -4.416193
vt -2.223041 0
vt -2.223041 -4.416193
vt 0 1
vt -4.416193 1
vt 0 2
vt -4.416193 2
vt 2.223041 1
vt 2.115367 1
vt 2.223041 2
vt 2.115367 2
vt -2.115367 1
vt -2.223041 1
vt -2.115367 2
vt -2.223041 2
vt 4.416193 1
vt 0 1
vt 4.416193 2
vt 0 2

g KingBed_0
usemtl Default_Prototype
f 3/3/3 4/4/4 2/2/2 1/1/1
f 7/7/7 8/8/8 6/6/6 5/5/5
f 11/11/11 12/12/12 10/10/10 9/9/9
f 15/15/15 16/16/16 14/14/14 13/13/13
f 19/19/19 20/20/20 18/18/18 17/17/17
f 23/23/23 24/24/24 22/22/22 21/21/21
f 28/28/28 27/27/27 25/25/25 26/26/26
f 32/32/32 31/31/31 29/29/29 30/30/30
f 36/36/36 35/35/35 33/33/33 34/34/34
f 40/40/40 39/39/39 37/37/37 38/38/38
f 44/44/44 43/43/43 41/41/41 42/42/42
f 48/48/48 47/47/47 45/45/45 46/46/46
f 52/52/52 51/51/51 49/49/49 50/50/50
f 56/56/56 55/55/55 53/53/53 54/54/54
f 60/60/60 59/59/59 57/57/57 58/58/58
f 64/64/64 63/63/63 61/61/61 62/62/62
f 68/68/68 67/67/67 65/65/65 66/66/66
f 72/72/72 71/71/71 69/69/69 70/70/70
f 99/99/99 100/100/100 98/98/98 97/97/97
f 103/103/103 104/104/104 102/102/102 101/101/101
f 107/107/107 108/108/108 106/106/106 105/105/105
f 111/111/111 112/112/112 110/110/110 109/109/109
f 115/115/115 116/116/116 114/114/114 113/113/113
f 119/119/119 120/120/120 118/118/118 117/117/117
f 123/123/123 124/124/124 122/122/122 121/121/121
f 127/127/127 128/128/128 126/126/126 125/125/125
f 131/131/131 132/132/132 130/130/130 129/129/129
f 135/135/135 136/136/136 134/134/134 133/133/133
f 139/139/139 140/140/140 138/138/138 137/137/137
f 143/143/143 144/144/144 142/142/142 141/141/141
f 147/147/147 148/148/148 146/146/146 145/145/145
f 151/151/151 152/152/152 150/150/150 149/149/149

g KingBed_1
usemtl Default_Prototype
f 73/73/73 74/74/74 75/75/75
f 78/78/78 77/77/77 76/76/76
f 79/79/79 80/80/80 81/81/81
f 84/84/84 83/83/83 82/82/82
f 87/87/87 86/86/86 85/85/85
f 90/90/90 89/89/89 88/88/88
f 93/93/93 92/92/92 91/91/91
f 96/96/96 95/95/95 94/94/94

