# Exported from ProBuilder
# http://www.procore3d.com/probuilder
# 5/11/2018 3:05:16 PM

mtllib ./MallBin(B).mtl
o MallBin(B)

g MallBin(B)
v 0.04173198 -0.01976103 0.9395
v -0.08613858 -0.01976103 0.9395
v 0.04173198 1.323965 0.9395
v -0.08613858 1.323965 0.9395
v -0.08613858 -0.01976103 0.9395
v -0.08613858 -0.01976103 -0.0605
v -0.08613858 1.323965 0.9395
v -0.08613858 1.323965 -0.0605
v -0.08613858 -0.01976103 -0.0605
v 0.04173198 -0.01976103 -0.0605
v -0.08613858 1.323965 -0.0605
v 0.04173198 1.323965 -0.0605
v 0.04173198 -0.01976103 -0.0605
v 0.04173198 -0.01976103 0.9395
v 0.04173198 1.323965 -0.0605
v 0.04173198 1.323965 0.9395
v 0.04173198 1.460011 0.9395
v -0.08613858 1.460011 0.9395
v 0.04173198 1.460011 -0.0605
v -0.08613858 1.460011 -0.0605
v 0.04173198 -0.01976103 -0.0605
v -0.08613858 -0.01976103 -0.0605
v 0.04173198 -0.01976103 0.9395
v -0.08613858 -0.01976103 0.9395
v 0.04173198 1.323965 0.9395
v -0.08613858 1.323965 0.9395
v 0.04173198 1.460011 0.9395
v -0.08613858 1.460011 0.9395
v 0.04173198 1.323965 -0.0605
v 0.04173198 1.323965 0.9395
v 0.04173198 1.460011 -0.0605
v 0.04173198 1.460011 0.9395
v -0.971732 1.323965 0.9395
v -0.971732 1.323965 -0.0605
v -0.971732 1.460011 0.9395
v -0.971732 1.460011 -0.0605
v -0.08613858 1.323965 -0.0605
v 0.04173198 1.323965 -0.0605
v -0.08613858 1.460011 -0.0605
v 0.04173198 1.460011 -0.0605
v -0.08613858 1.323965 0.9395
v -0.08613858 1.323965 -0.0605
v -0.8402127 1.323965 0.9395
v -0.8402127 1.323965 -0.0605
v -0.08613858 1.460011 0.9395
v -0.08613858 1.323965 0.9395
v -0.8402127 1.460011 0.9395
v -0.8402127 1.323965 0.9395
v -0.08613858 1.323965 -0.0605
v -0.08613858 1.460011 -0.0605
v -0.8402127 1.323965 -0.0605
v -0.8402127 1.460011 -0.0605
v -0.08613858 1.460011 -0.0605
v -0.08613858 1.460011 0.9395
v -0.8402127 1.460011 -0.0605
v -0.8402127 1.460011 0.9395
v -0.8402127 -0.02801043 0.9395
v -0.8402127 -0.02801043 -0.0605
v -0.971732 -0.02801043 0.9395
v -0.971732 -0.02801043 -0.0605
v -0.8402127 1.460011 0.9395
v -0.8402127 1.323965 0.9395
v -0.971732 1.460011 0.9395
v -0.971732 1.323965 0.9395
v -0.8402127 1.323965 -0.0605
v -0.8402127 1.460011 -0.0605
v -0.971732 1.323965 -0.0605
v -0.971732 1.460011 -0.0605
v -0.8402127 1.460011 -0.0605
v -0.8402127 1.460011 0.9395
v -0.971732 1.460011 -0.0605
v -0.971732 1.460011 0.9395
v -0.8402127 1.323965 0.9395
v -0.8402127 1.323965 -0.0605
v -0.8402127 -0.02801043 0.9395
v -0.8402127 -0.02801043 -0.0605
v -0.971732 1.323965 0.9395
v -0.8402127 1.323965 0.9395
v -0.971732 -0.02801043 0.9395
v -0.8402127 -0.02801043 0.9395
v -0.8402127 1.323965 -0.0605
v -0.971732 1.323965 -0.0605
v -0.8402127 -0.02801043 -0.0605
v -0.971732 -0.02801043 -0.0605
v -0.971732 1.323965 -0.0605
v -0.971732 1.323965 0.9395
v -0.971732 -0.02801043 -0.0605
v -0.971732 -0.02801043 0.9395
v -0.09626755 0.009239018 0.8805
v -0.8411959 0.009239018 0.8805
v -0.09626755 1.009239 0.8805
v -0.8411959 1.009239 0.8805
v -0.8411959 0.009239018 0.8805
v -0.8411959 0.009239018 -0.1194991
v -0.8411959 1.009239 0.8805
v -0.8411959 1.009239 -0.1194991
v -0.8411959 0.009239018 -0.1194991
v -0.09626755 0.009239018 -0.1194991
v -0.8411959 1.009239 -0.1194991
v -0.09626755 1.009239 -0.1194991
v -0.09626755 0.009239018 -0.1194991
v -0.09626755 0.009239018 0.8805
v -0.09626755 1.009239 -0.1194991
v -0.09626755 1.009239 0.8805
v -0.1626719 0.6786808 0.7913581
v -0.7747916 0.6786808 0.7913581
v -0.1626719 0.6786808 -0.03035817
v -0.7747916 0.6786808 -0.03035817
v -0.09626755 0.009239018 -0.1194991
v -0.8411959 0.009239018 -0.1194991
v -0.09626755 0.009239018 0.8805
v -0.8411959 0.009239018 0.8805
v -0.09626755 1.009239 0.8805
v -0.8411959 1.009239 0.8805
v -0.1626719 1.016659 0.7913581
v -0.7747916 1.016659 0.7913581
v -0.09626755 1.009239 -0.1194991
v -0.09626755 1.009239 0.8805
v -0.1626719 1.016659 -0.03035817
v -0.1626719 1.016659 0.7913581
v -0.8411959 1.009239 0.8805
v -0.8411959 1.009239 -0.1194991
v -0.7747916 1.016659 0.7913581
v -0.7747916 1.016659 -0.03035817
v -0.8411959 1.009239 -0.1194991
v -0.09626755 1.009239 -0.1194991
v -0.7747916 1.016659 -0.03035817
v -0.1626719 1.016659 -0.03035817
v -0.1626719 1.016659 0.7913581
v -0.7747916 1.016659 0.7913581
v -0.1626719 0.6786808 0.7913581
v -0.7747916 0.6786808 0.7913581
v -0.1626719 1.016659 -0.03035817
v -0.1626719 1.016659 0.7913581
v -0.1626719 0.6786808 -0.03035817
v -0.1626719 0.6786808 0.7913581
v -0.7747916 1.016659 0.7913581
v -0.7747916 1.016659 -0.03035817
v -0.7747916 0.6786808 0.7913581
v -0.7747916 0.6786808 -0.03035817
v -0.7747916 1.016659 -0.03035817
v -0.1626719 1.016659 -0.03035817
v -0.7747916 0.6786808 -0.03035817
v -0.1626719 0.6786808 -0.03035817

vn 0 0 1
vn 0 0 1
vn 0 0 1
vn 0 0 1
vn -1 0 0
vn -1 0 0
vn -1 0 0
vn -1 0 0
vn 0 0 -1
vn 0 0 -1
vn 0 0 -1
vn 0 0 -1
vn 1 0 0
vn 1 0 0
vn 1 0 0
vn 1 0 0
vn 0 1 0
vn 0 1 0
vn 0 1 0
vn 0 1 0
vn 0 -1 0
vn 0 -1 0
vn 0 -1 0
vn 0 -1 0
vn 0 0 1
vn 0 0 1
vn 0 0 1
vn 0 0 1
vn 1 0 0
vn 1 0 0
vn 1 0 0
vn 1 0 0
vn -1 0 0
vn -1 0 0
vn -1 0 0
vn -1 0 0
vn 0 0 -1
vn 0 0 -1
vn 0 0 -1
vn 0 0 -1
vn 0 -1 0
vn 0 -1 0
vn 0 -1 0
vn 0 -1 0
vn 0 0 1
vn 0 0 1
vn 0 0 1
vn 0 0 1
vn 0 0 -1
vn 0 0 -1
vn 0 0 -1
vn 0 0 -1
vn 0 1 0
vn 0 1 0
vn 0 1 0
vn 0 1 0
vn 0 -1 0
vn 0 -1 0
vn 0 -1 0
vn 0 -1 0
vn 0 0 1
vn 0 0 1
vn 0 0 1
vn 0 0 1
vn 0 0 -1
vn 0 0 -1
vn 0 0 -1
vn 0 0 -1
vn 0 1 0
vn 0 1 0
vn 0 1 0
vn 0 1 0
vn 1 0 0
vn 1 0 0
vn 1 0 0
vn 1 0 0
vn 0 0 1
vn 0 0 1
vn 0 0 1
vn 0 0 1
vn 0 0 -1
vn 0 0 -1
vn 0 0 -1
vn 0 0 -1
vn -1 0 0
vn -1 0 0
vn -1 0 0
vn -1 0 0
vn 0 0 0.9999999
vn 0 0 0.9999999
vn 0 0 0.9999999
vn 0 0 0.9999999
vn -1 0 0
vn -1 0 0
vn -1 0 0
vn -1 0 0
vn 0 0 -0.9999999
vn 0 0 -0.9999999
vn 0 0 -0.9999999
vn 0 0 -0.9999999
vn 1 0 0
vn 1 0 0
vn 1 0 0
vn 1 0 0
vn 0 1 0
vn 0 1 0
vn 0 1 0
vn 0 1 0
vn 0 -1 0
vn 0 -1 0
vn 0 -1 0
vn 0 -1 0
vn 0 0.9965536 0.08295195
vn 0 0.9965535 0.08295195
vn 0 0.9965535 0.08295195
vn 0 0.9965536 0.08295195
vn 0.1110495 0.9938148 0
vn 0.1110495 0.9938148 0
vn 0.1110495 0.9938149 0
vn 0.1110495 0.9938148 0
vn -0.1110495 0.9938148 0
vn -0.1110495 0.9938148 0
vn -0.1110495 0.9938149 0
vn -0.1110495 0.9938148 0
vn 0 0.9965534 -0.08295282
vn 0 0.9965534 -0.08295283
vn 0 0.9965535 -0.08295283
vn 0 0.9965534 -0.08295282
vn 0 0 -0.9999999
vn 0 0 -0.9999999
vn 0 0 -0.9999999
vn 0 0 -0.9999999
vn -1 0 0
vn -1 0 0
vn -1 0 0
vn -1 0 0
vn 1 0 0
vn 1 0 0
vn 1 0 0
vn 1 0 0
vn 0 0 0.9999999
vn 0 0 0.9999999
vn 0 0 0.9999999
vn 0 0 0.9999999

vt 0 0
vt -0.1278706 0
vt 0 1.343726
vt -0.1278706 1.343726
vt 0 0
vt -1 0
vt 0 1.343726
vt -1 1.343726
vt 0.1278706 0
vt 0 0
vt 0.1278706 1.343726
vt 0 1.343726
vt 1 0
vt 0 0
vt 1 1.343726
vt 0 1.343726
vt 0 0
vt 0.1278706 0
vt 0 -1
vt 0.1278706 -1
vt 0 -1
vt -0.1278706 -1
vt 0 0
vt -0.1278706 0
vt 0 1.343726
vt -0.1278706 1.343726
vt 0 1.479772
vt -0.1278706 1.479772
vt 1 1.343726
vt 0 1.343726
vt 1 1.479772
vt 0 1.479772
vt 0 1.343726
vt -1 1.343726
vt 0 1.479772
vt -1 1.479772
vt 0.1278706 1.343726
vt 0 1.343726
vt 0.1278706 1.479772
vt 0 1.479772
vt -0.1278706 0
vt -0.1278706 -1
vt -0.8819447 0
vt -0.8819447 -1
vt -0.1278706 1.479772
vt -0.1278706 1.343726
vt -0.8819447 1.479772
vt -0.8819447 1.343726
vt 0.1278706 1.343726
vt 0.1278706 1.479772
vt 0.8819447 1.343726
vt 0.8819447 1.479772
vt 0.1278706 -1
vt 0.1278706 0
vt 0.8819447 -1
vt 0.8819447 0
vt -0.8819447 0
vt -0.8819447 -1
vt -1.013464 0
vt -1.013464 -1
vt -0.8819447 1.479772
vt -0.8819447 1.343726
vt -1.013464 1.479772
vt -1.013464 1.343726
vt 0.8819447 1.343726
vt 0.8819447 1.479772
vt 1.013464 1.343726
vt 1.013464 1.479772
vt 0.8819447 -1
vt 0.8819447 0
vt 1.013464 -1
vt 1.013464 0
vt 0 1.343726
vt 1 1.343726
vt 0 -0.008249402
vt 1 -0.008249402
vt -1.013464 1.343726
vt -0.8819447 1.343726
vt -1.013464 -0.008249402
vt -0.8819447 -0.008249402
vt 0.8819447 1.343726
vt 1.013464 1.343726
vt 0.8819447 -0.008249402
vt 1.013464 -0.008249402
vt -1 1.343726
vt 0 1.343726
vt -1 -0.008249402
vt 0 -0.008249402
vt 0 0
vt -0.7449284 0
vt 0 1
vt -0.7449284 1
vt 0 0
vt -1 0
vt 0 1
vt -1 1
vt 0.7449284 0
vt 0 0
vt 0.7449284 1
vt 0 1
vt 1 0
vt 0 0
vt 1 1
vt 0 1
vt 0.06640452 -0.08914214
vt 0.6785238 -0.08914214
vt 0.06640452 -0.9108579
vt 0.6785238 -0.9108579
vt 0 -1
vt -0.7449284 -1
vt 0 0
vt -0.7449284 0
vt 0 -0.08295167
vt 0.7449284 -0.08295167
vt 0.06640452 -0.1724021
vt 0.6785238 -0.1724021
vt 0.1110492 -1
vt 0.1110492 0
vt 0.177867 -0.9108579
vt 0.177867 -0.08914214
vt 0.6292717 0
vt 0.6292717 -1
vt 0.5624539 -0.08914214
vt 0.5624539 -0.9108579
vt 0.7449284 -0.9136019
vt 0 -0.9136019
vt 0.6785238 -0.8241515
vt 0.06640452 -0.8241515
vt 0.06640452 1.00742
vt 0.6785238 1.00742
vt 0.06640452 0.6694419
vt 0.6785238 0.6694419
vt -0.9108579 1.00742
vt -0.08914214 1.00742
vt -0.9108579 0.6694419
vt -0.08914214 0.6694419
vt 0.08914214 1.00742
vt 0.9108579 1.00742
vt 0.08914214 0.6694419
vt 0.9108579 0.6694419
vt -0.6785238 1.00742
vt -0.06640452 1.00742
vt -0.6785238 0.6694419
vt -0.06640452 0.6694419

g MallBin(B)
usemtl Default_Prototype
f 3/3/3 4/4/4 2/2/2 1/1/1
f 7/7/7 8/8/8 6/6/6 5/5/5
f 11/11/11 12/12/12 10/10/10 9/9/9
f 15/15/15 16/16/16 14/14/14 13/13/13
f 19/19/19 20/20/20 18/18/18 17/17/17
f 23/23/23 24/24/24 22/22/22 21/21/21
f 27/27/27 28/28/28 26/26/26 25/25/25
f 31/31/31 32/32/32 30/30/30 29/29/29
f 35/35/35 36/36/36 34/34/34 33/33/33
f 39/39/39 40/40/40 38/38/38 37/37/37
f 43/43/43 44/44/44 42/42/42 41/41/41
f 47/47/47 48/48/48 46/46/46 45/45/45
f 51/51/51 52/52/52 50/50/50 49/49/49
f 55/55/55 56/56/56 54/54/54 53/53/53
f 59/59/59 60/60/60 58/58/58 57/57/57
f 63/63/63 64/64/64 62/62/62 61/61/61
f 67/67/67 68/68/68 66/66/66 65/65/65
f 71/71/71 72/72/72 70/70/70 69/69/69
f 75/75/75 76/76/76 74/74/74 73/73/73
f 79/79/79 80/80/80 78/78/78 77/77/77
f 83/83/83 84/84/84 82/82/82 81/81/81
f 87/87/87 88/88/88 86/86/86 85/85/85
f 91/91/91 92/92/92 90/90/90 89/89/89
f 95/95/95 96/96/96 94/94/94 93/93/93
f 99/99/99 100/100/100 98/98/98 97/97/97
f 103/103/103 104/104/104 102/102/102 101/101/101
f 107/107/107 108/108/108 106/106/106 105/105/105
f 111/111/111 112/112/112 110/110/110 109/109/109
f 115/115/115 116/116/116 114/114/114 113/113/113
f 119/119/119 120/120/120 118/118/118 117/117/117
f 123/123/123 124/124/124 122/122/122 121/121/121
f 127/127/127 128/128/128 126/126/126 125/125/125
f 131/131/131 132/132/132 130/130/130 129/129/129
f 135/135/135 136/136/136 134/134/134 133/133/133
f 139/139/139 140/140/140 138/138/138 137/137/137
f 143/143/143 144/144/144 142/142/142 141/141/141

