# Exported from ProBuilder
# http://www.procore3d.com/probuilder
# 5/11/2018 3:00:53 PM

mtllib ./MallBin(A).mtl
o MallBin(A)

g MallBin(A)
v -0.03099936 0.9806755 0.1300003
v -0.156192 0.9806755 0.1300003
v -0.03099936 1.324982 0.1300003
v -0.156192 1.324982 0.1300003
v -0.156192 0.9806755 0.1300003
v -0.156192 0.9806755 0.004807651
v -0.156192 1.324982 0.1300003
v -0.156192 1.324982 0.004807651
v -0.156192 0.9806755 0.004807651
v -0.03099936 0.9806755 0.004807651
v -0.156192 1.324982 0.004807651
v -0.03099936 1.324982 0.004807651
v -0.03099936 0.9806755 0.004807651
v -0.03099936 0.9806755 0.1300003
v -0.03099936 1.324982 0.004807651
v -0.03099936 1.324982 0.1300003
v -0.03099936 1.324982 0.1300003
v -0.156192 1.324982 0.1300003
v -0.03099936 1.324982 0.004807651
v -0.156192 1.324982 0.004807651
v -0.03099936 0.9806755 0.004807651
v -0.156192 0.9806755 0.004807651
v -0.03099936 0.9806755 0.1300003
v -0.156192 0.9806755 0.1300003
v -0.8719999 0.9806755 0.957
v -0.9971926 0.9806755 0.957
v -0.8719999 1.324982 0.957
v -0.9971926 1.324982 0.957
v -0.9971926 0.9806755 0.957
v -0.9971926 0.9806755 0.8318073
v -0.9971926 1.324982 0.957
v -0.9971926 1.324982 0.8318073
v -0.9971926 0.9806755 0.8318073
v -0.8719999 0.9806755 0.8318073
v -0.9971926 1.324982 0.8318073
v -0.8719999 1.324982 0.8318073
v -0.8719999 0.9806755 0.8318073
v -0.8719999 0.9806755 0.957
v -0.8719999 1.324982 0.8318073
v -0.8719999 1.324982 0.957
v -0.8719999 1.324982 0.957
v -0.9971926 1.324982 0.957
v -0.8719999 1.324982 0.8318073
v -0.9971926 1.324982 0.8318073
v -0.8719999 0.9806755 0.8318073
v -0.9971926 0.9806755 0.8318073
v -0.8719999 0.9806755 0.957
v -0.9971926 0.9806755 0.957
v -0.03099936 0.9806755 0.957
v -0.156192 0.9806755 0.957
v -0.03099936 1.324982 0.957
v -0.156192 1.324982 0.957
v -0.156192 0.9806755 0.957
v -0.156192 0.9806755 0.8318073
v -0.156192 1.324982 0.957
v -0.156192 1.324982 0.8318073
v -0.156192 0.9806755 0.8318073
v -0.03099936 0.9806755 0.8318073
v -0.156192 1.324982 0.8318073
v -0.03099936 1.324982 0.8318073
v -0.03099936 0.9806755 0.8318073
v -0.03099936 0.9806755 0.957
v -0.03099936 1.324982 0.8318073
v -0.03099936 1.324982 0.957
v -0.03099936 1.324982 0.957
v -0.156192 1.324982 0.957
v -0.03099936 1.324982 0.8318073
v -0.156192 1.324982 0.8318073
v -0.03099936 0.9806755 0.8318073
v -0.156192 0.9806755 0.8318073
v -0.03099936 0.9806755 0.957
v -0.156192 0.9806755 0.957
v -0.8719999 0.9806755 0.1300003
v -0.9971926 0.9806755 0.1300003
v -0.8719999 1.324982 0.1300003
v -0.9971926 1.324982 0.1300003
v -0.9971926 0.9806755 0.1300003
v -0.9971926 0.9806755 0.004807651
v -0.9971926 1.324982 0.1300003
v -0.9971926 1.324982 0.004807651
v -0.9971926 0.9806755 0.004807651
v -0.8719999 0.9806755 0.004807651
v -0.9971926 1.324982 0.004807651
v -0.8719999 1.324982 0.004807651
v -0.8719999 0.9806755 0.004807651
v -0.8719999 0.9806755 0.1300003
v -0.8719999 1.324982 0.004807651
v -0.8719999 1.324982 0.1300003
v -0.8719999 1.324982 0.1300003
v -0.9971926 1.324982 0.1300003
v -0.8719999 1.324982 0.004807651
v -0.9971926 1.324982 0.004807651
v -0.8719999 0.9806755 0.004807651
v -0.9971926 0.9806755 0.004807651
v -0.8719999 0.9806755 0.1300003
v -0.9971926 0.9806755 0.1300003
v -0.01599997 1.235276 0.976
v -1.016 1.235276 0.976
v -0.01599997 1.458724 0.976
v -1.016 1.458724 0.976
v -1.016 1.235276 0.976
v -1.016 1.235276 -0.02399999
v -1.016 1.458724 0.976
v -1.016 1.458724 -0.02399999
v -1.016 1.235276 -0.02399999
v -0.01599997 1.235276 -0.02399999
v -1.016 1.458724 -0.02399999
v -0.01599997 1.458724 -0.02399999
v -0.01599997 1.235276 -0.02399999
v -0.01599997 1.235276 0.976
v -0.01599997 1.458724 -0.02399999
v -0.01599997 1.458724 0.976
v -0.01599997 1.458724 0.976
v -1.016 1.458724 0.976
v -0.01599997 1.458724 -0.02399999
v -1.016 1.458724 -0.02399999
v -0.01599997 1.235276 -0.02399999
v -1.016 1.235276 -0.02399999
v -0.01599997 1.235276 0.976
v -1.016 1.235276 0.976
v -0.01599997 -0.01672441 0.976
v -1.016 -0.01672441 0.976
v -0.01599997 0.9832757 0.976
v -1.016 0.9832757 0.976
v -1.016 -0.01672441 0.976
v -1.016 -0.01672441 -0.02399999
v -1.016 0.9832757 0.976
v -1.016 0.9832757 -0.02399999
v -1.016 -0.01672441 -0.02399999
v -0.01599997 -0.01672441 -0.02399999
v -1.016 0.9832757 -0.02399999
v -0.01599997 0.9832757 -0.02399999
v -0.01599997 -0.01672441 -0.02399999
v -0.01599997 -0.01672441 0.976
v -0.01599997 0.9832757 -0.02399999
v -0.01599997 0.9832757 0.976
v -0.1401417 0.7291058 0.8518583
v -0.8918583 0.7291058 0.8518583
v -0.1401417 0.7291058 0.1001417
v -0.8918583 0.7291058 0.1001417
v -0.01599997 -0.01672441 -0.02399999
v -1.016 -0.01672441 -0.02399999
v -0.01599997 -0.01672441 0.976
v -1.016 -0.01672441 0.976
v -0.01599997 0.9832757 0.976
v -1.016 0.9832757 0.976
v -0.1401417 0.9904469 0.8518583
v -0.8918583 0.9904469 0.8518583
v -0.01599997 0.9832757 -0.02399999
v -0.01599997 0.9832757 0.976
v -0.1401417 0.9904469 0.1001417
v -0.1401417 0.9904469 0.8518583
v -1.016 0.9832757 0.976
v -1.016 0.9832757 -0.02399999
v -0.8918583 0.9904469 0.8518583
v -0.8918583 0.9904469 0.1001417
v -1.016 0.9832757 -0.02399999
v -0.01599997 0.9832757 -0.02399999
v -0.8918583 0.9904469 0.1001417
v -0.1401417 0.9904469 0.1001417
v -0.1401417 0.9904469 0.8518583
v -0.8918583 0.9904469 0.8518583
v -0.1401417 0.7291058 0.8518583
v -0.8918583 0.7291058 0.8518583
v -0.1401417 0.9904469 0.1001417
v -0.1401417 0.9904469 0.8518583
v -0.1401417 0.7291058 0.1001417
v -0.1401417 0.7291058 0.8518583
v -0.8918583 0.9904469 0.8518583
v -0.8918583 0.9904469 0.1001417
v -0.8918583 0.7291058 0.8518583
v -0.8918583 0.7291058 0.1001417
v -0.8918583 0.9904469 0.1001417
v -0.1401417 0.9904469 0.1001417
v -0.8918583 0.7291058 0.1001417
v -0.1401417 0.7291058 0.1001417

vn 0 0 1
vn 0 0 1
vn 0 0 1
vn 0 0 1
vn -1 0 0
vn -1 0 0
vn -1 0 0
vn -1 0 0
vn 0 0 -1
vn 0 0 -1
vn 0 0 -1
vn 0 0 -1
vn 1 0 0
vn 1 0 0
vn 1 0 0
vn 1 0 0
vn 0 1 0
vn 0 1 0
vn 0 1 0
vn 0 1 0
vn 0 -1 0
vn 0 -1 0
vn 0 -1 0
vn 0 -1 0
vn 0 0 1
vn 0 0 1
vn 0 0 1
vn 0 0 1
vn -1 0 0
vn -1 0 0
vn -1 0 0
vn -1 0 0
vn 0 0 -1
vn 0 0 -1
vn 0 0 -1
vn 0 0 -1
vn 1 0 0
vn 1 0 0
vn 1 0 0
vn 1 0 0
vn 0 1 0
vn 0 1 0
vn 0 1 0
vn 0 1 0
vn 0 -1 0
vn 0 -1 0
vn 0 -1 0
vn 0 -1 0
vn 0 0 1
vn 0 0 1
vn 0 0 1
vn 0 0 1
vn -1 0 0
vn -1 0 0
vn -1 0 0
vn -1 0 0
vn 0 0 -1
vn 0 0 -1
vn 0 0 -1
vn 0 0 -1
vn 1 0 0
vn 1 0 0
vn 1 0 0
vn 1 0 0
vn 0 1 0
vn 0 1 0
vn 0 1 0
vn 0 1 0
vn 0 -1 0
vn 0 -1 0
vn 0 -1 0
vn 0 -1 0
vn 0 0 1
vn 0 0 1
vn 0 0 1
vn 0 0 1
vn -1 0 0
vn -1 0 0
vn -1 0 0
vn -1 0 0
vn 0 0 -1
vn 0 0 -1
vn 0 0 -1
vn 0 0 -1
vn 1 0 0
vn 1 0 0
vn 1 0 0
vn 1 0 0
vn 0 1 0
vn 0 1 0
vn 0 1 0
vn 0 1 0
vn 0 -1 0
vn 0 -1 0
vn 0 -1 0
vn 0 -1 0
vn 0 0 0.9999999
vn 0 0 0.9999999
vn 0 0 0.9999999
vn 0 0 0.9999999
vn -0.9999999 0 0
vn -0.9999999 0 0
vn -0.9999999 0 0
vn -0.9999999 0 0
vn 0 0 -0.9999999
vn 0 0 -0.9999999
vn 0 0 -0.9999999
vn 0 0 -0.9999999
vn 0.9999999 0 0
vn 0.9999999 0 0
vn 0.9999999 0 0
vn 0.9999999 0 0
vn 0 1 0
vn 0 1 0
vn 0 1 0
vn 0 1 0
vn 0 -1 0
vn 0 -1 0
vn 0 -1 0
vn 0 -1 0
vn 0 0 1
vn 0 0 1
vn 0 0 1
vn 0 0 1
vn -1 0 0
vn -1 0 0
vn -1 0 0
vn -1 0 0
vn 0 0 -1
vn 0 0 -1
vn 0 0 -1
vn 0 0 -1
vn 1 0 0
vn 1 0 0
vn 1 0 0
vn 1 0 0
vn 0 1 0
vn 0 1 0
vn 0 1 0
vn 0 1 0
vn 0 -1 0
vn 0 -1 0
vn 0 -1 0
vn 0 -1 0
vn 0 0.9983358 0.05766974
vn 0 0.9983357 0.05766974
vn 0 0.9983357 0.05766974
vn 0 0.9983358 0.05766974
vn 0.05766974 0.9983358 0
vn 0.05766974 0.9983357 0
vn 0.05766974 0.9983357 0
vn 0.05766974 0.9983358 0
vn -0.05766974 0.9983358 0
vn -0.05766974 0.9983357 0
vn -0.05766974 0.9983357 0
vn -0.05766974 0.9983358 0
vn 0 0.9983358 -0.05766974
vn 0 0.9983357 -0.05766974
vn 0 0.9983357 -0.05766974
vn 0 0.9983358 -0.05766974
vn 0 0 -1
vn 0 0 -1
vn 0 0 -1
vn 0 0 -1
vn -1 0 0
vn -1 0 0
vn -1 0 0
vn -1 0 0
vn 1 0 0
vn 1 0 0
vn 1 0 0
vn 1 0 0
vn 0 0 1
vn 0 0 1
vn 0 0 1
vn 0 0 1

vt 0 0
vt -1 0
vt 0 2.750223
vt -1 2.750223
vt 0 0
vt -1 0
vt 0 2.750223
vt -1 2.750223
vt 1 0
vt 0 0
vt 1 2.750223
vt 0 2.750223
vt 1 0
vt 0 0
vt 1 2.750223
vt 0 2.750223
vt 0 0
vt 1 0
vt 0 -1
vt 1 -1
vt 0 -1
vt -1 -1
vt 0 0
vt -1 0
vt 0 0
vt -1 0
vt 0 2.750223
vt -1 2.750223
vt 0 0
vt -1 0
vt 0 2.750223
vt -1 2.750223
vt 1 0
vt 0 0
vt 1 2.750223
vt 0 2.750223
vt 1 0
vt 0 0
vt 1 2.750223
vt 0 2.750223
vt 0 0
vt 1 0
vt 0 -1
vt 1 -1
vt 0 -1
vt -1 -1
vt 0 0
vt -1 0
vt 0 0
vt -1 0
vt 0 2.750223
vt -1 2.750223
vt 0 0
vt -1 0
vt 0 2.750223
vt -1 2.750223
vt 1 0
vt 0 0
vt 1 2.750223
vt 0 2.750223
vt 1 0
vt 0 0
vt 1 2.750223
vt 0 2.750223
vt 0 0
vt 1 0
vt 0 -1
vt 1 -1
vt 0 -1
vt -1 -1
vt 0 0
vt -1 0
vt 0 0
vt -1 0
vt 0 2.750223
vt -1 2.750223
vt 0 0
vt -1 0
vt 0 2.750223
vt -1 2.750223
vt 1 0
vt 0 0
vt 1 2.750223
vt 0 2.750223
vt 1 0
vt 0 0
vt 1 2.750223
vt 0 2.750223
vt 0 0
vt 1 0
vt 0 -1
vt 1 -1
vt 0 -1
vt -1 -1
vt 0 0
vt -1 0
vt 0 0
vt -1 0
vt 0 0.2234488
vt -1 0.2234488
vt 0 0
vt -1 0
vt 0 0.2234488
vt -1 0.2234488
vt 1 0
vt 0 0
vt 1 0.2234488
vt 0 0.2234488
vt 1 0
vt 0 0
vt 1 0.2234488
vt 0 0.2234488
vt 0 0
vt 1 0
vt 0 -1
vt 1 -1
vt 0 -1
vt -1 -1
vt 0 0
vt -1 0
vt 0 0
vt -1 0
vt 0 1
vt -1 1
vt 0 0
vt -1 0
vt 0 1
vt -1 1
vt 1 0
vt 0 0
vt 1 1
vt 0 1
vt 1 0
vt 0 0
vt 1 1
vt 0 1
vt 0.1241422 -0.1241422
vt 0.8758578 -0.1241422
vt 0.1241422 -0.8758578
vt 0.8758578 -0.8758578
vt 0 -1
vt -1 -1
vt 0 0
vt -1 0
vt 0 -0.05766952
vt 1 -0.05766952
vt 0.1241422 -0.1820186
vt 0.8758578 -0.1820186
vt 0.05766952 -1
vt 0.05766952 0
vt 0.1820186 -0.8758578
vt 0.1820186 -0.1241422
vt 0.9406662 0
vt 0.9406662 -1
vt 0.8163171 -0.1241422
vt 0.8163171 -0.8758578
vt 1 -0.9406662
vt 0 -0.9406662
vt 0.8758578 -0.8163171
vt 0.1241422 -0.8163171
vt 0.1241422 1.007171
vt 0.8758578 1.007171
vt 0.1241422 0.7458301
vt 0.8758578 0.7458301
vt -0.8758578 1.007171
vt -0.1241422 1.007171
vt -0.8758578 0.7458301
vt -0.1241422 0.7458301
vt 0.1241422 1.007171
vt 0.8758578 1.007171
vt 0.1241422 0.7458301
vt 0.8758578 0.7458301
vt -0.8758578 1.007171
vt -0.1241422 1.007171
vt -0.8758578 0.7458301
vt -0.1241422 0.7458301

g MallBin(A)
usemtl Default_Prototype
f 3/3/3 4/4/4 2/2/2 1/1/1
f 7/7/7 8/8/8 6/6/6 5/5/5
f 11/11/11 12/12/12 10/10/10 9/9/9
f 15/15/15 16/16/16 14/14/14 13/13/13
f 19/19/19 20/20/20 18/18/18 17/17/17
f 23/23/23 24/24/24 22/22/22 21/21/21
f 27/27/27 28/28/28 26/26/26 25/25/25
f 31/31/31 32/32/32 30/30/30 29/29/29
f 35/35/35 36/36/36 34/34/34 33/33/33
f 39/39/39 40/40/40 38/38/38 37/37/37
f 43/43/43 44/44/44 42/42/42 41/41/41
f 47/47/47 48/48/48 46/46/46 45/45/45
f 51/51/51 52/52/52 50/50/50 49/49/49
f 55/55/55 56/56/56 54/54/54 53/53/53
f 59/59/59 60/60/60 58/58/58 57/57/57
f 63/63/63 64/64/64 62/62/62 61/61/61
f 67/67/67 68/68/68 66/66/66 65/65/65
f 71/71/71 72/72/72 70/70/70 69/69/69
f 75/75/75 76/76/76 74/74/74 73/73/73
f 79/79/79 80/80/80 78/78/78 77/77/77
f 83/83/83 84/84/84 82/82/82 81/81/81
f 87/87/87 88/88/88 86/86/86 85/85/85
f 91/91/91 92/92/92 90/90/90 89/89/89
f 95/95/95 96/96/96 94/94/94 93/93/93
f 99/99/99 100/100/100 98/98/98 97/97/97
f 103/103/103 104/104/104 102/102/102 101/101/101
f 107/107/107 108/108/108 106/106/106 105/105/105
f 111/111/111 112/112/112 110/110/110 109/109/109
f 115/115/115 116/116/116 114/114/114 113/113/113
f 119/119/119 120/120/120 118/118/118 117/117/117
f 123/123/123 124/124/124 122/122/122 121/121/121
f 127/127/127 128/128/128 126/126/126 125/125/125
f 131/131/131 132/132/132 130/130/130 129/129/129
f 135/135/135 136/136/136 134/134/134 133/133/133
f 139/139/139 140/140/140 138/138/138 137/137/137
f 143/143/143 144/144/144 142/142/142 141/141/141
f 147/147/147 148/148/148 146/146/146 145/145/145
f 151/151/151 152/152/152 150/150/150 149/149/149
f 155/155/155 156/156/156 154/154/154 153/153/153
f 159/159/159 160/160/160 158/158/158 157/157/157
f 163/163/163 164/164/164 162/162/162 161/161/161
f 167/167/167 168/168/168 166/166/166 165/165/165
f 171/171/171 172/172/172 170/170/170 169/169/169
f 175/175/175 176/176/176 174/174/174 173/173/173

