# Exported from ProBuilder
# http://www.procore3d.com/probuilder
# 5/10/2018 3:48:44 PM

mtllib ./ShoppingMallSecurityGate_.mtl
o ShoppingMallSecurityGate 

g ShoppingMallSecurityGate 
v 0.1035762 0.08155465 0.1649432
v -0.6255763 0.08155465 0.1649432
v 0.1035762 0.3483224 0.1649432
v -0.6255763 0.3483224 0.1649432
v -0.6255763 0.08155465 -0.1299672
v -0.6255763 0.08155465 -0.1649432
v -0.6255763 0.3483224 -0.05146742
v -0.6255763 0.3483224 -0.1649432
v -0.6255763 0.08155465 -0.1649432
v 0.1035762 0.08155465 -0.1649432
v -0.6255763 0.3483224 -0.1649432
v 0.1035762 0.3483224 -0.1649432
v 0.1035762 0.08155465 -0.1649432
v 0.1035762 0.08155465 -0.05146742
v 0.1035762 0.3483224 -0.1649432
v 0.1035762 0.3483224 -0.05146742
v 0.1035762 0.5512969 -0.05146742
v -0.6255763 0.5512969 -0.05146742
v 0.1035762 0.5512969 -0.1649432
v -0.6255763 0.5512969 -0.1649432
v 0.1035762 0.08155465 -0.1649432
v -0.6255763 0.08155465 -0.1649432
v 0.1035762 0.08155465 -0.05146742
v -0.6255763 0.08155465 -0.1299672
v 0.1035762 0.3483224 0.1649432
v -0.6255763 0.3483224 0.1649432
v 0.1035762 0.5512969 0.1649432
v -0.6255763 0.5512969 0.1649432
v 0.1035762 0.3483224 -0.1649432
v 0.1035762 0.3483224 -0.05146742
v 0.1035762 0.5512969 -0.1649432
v 0.1035762 0.5512969 -0.05146742
v -0.6255763 0.3483224 -0.05146742
v -0.6255763 0.3483224 -0.1649432
v -0.6255763 0.5512969 -0.05146742
v -0.6255763 0.5512969 -0.1649432
v -0.6255763 0.3483224 -0.1649432
v 0.1035762 0.3483224 -0.1649432
v -0.6255763 0.5512969 -0.1649432
v 0.1035762 0.5512969 -0.1649432
v 0.1728885 0.5512969 -0.05146742
v 0.1728885 0.3483224 -0.05146742
v 0.1728885 0.5512969 0.06175089
v 0.1728885 0.3483224 0.06175089
v -0.6948885 0.3483224 -0.05146742
v -0.6948885 0.5512969 -0.05146742
v -0.6948885 0.3483224 0.06175089
v -0.6948885 0.5512969 0.06175089
v -0.4730898 2.800445 -0.05146742
v -0.04891022 2.800445 -0.05146742
v -0.4730898 2.800445 0.06175089
v -0.04891022 2.800445 0.06175089
v 0.1035762 0.08155465 -0.05146742
v -0.6255763 0.08155465 -0.1299672
v 0.1035762 0.08155465 0.06175089
v -0.6255763 0.08155465 0.06175089
v 0.1035762 0.3483224 -0.05146742
v 0.1035762 0.08155465 -0.05146742
v 0.1035762 0.3483224 0.06175089
v 0.1035762 0.08155465 0.06175089
v -0.6255763 0.08155465 -0.1299672
v -0.6255763 0.3483224 -0.05146742
v -0.6255763 0.08155465 0.06175089
v -0.6255763 0.3483224 0.06175089
v 0.1035762 0.5512969 0.06175089
v 0.1035762 0.3483224 0.06175089
v 0.1035762 0.5512969 0.1649432
v 0.1035762 0.3483224 0.1649432
v -0.6255763 0.3483224 0.06175089
v -0.6255763 0.5512969 0.06175089
v -0.6255763 0.3483224 0.1649432
v -0.6255763 0.5512969 0.1649432
v -0.6255763 0.5512969 0.06175089
v 0.1035762 0.5512969 0.06175089
v -0.6255763 0.5512969 0.1649432
v 0.1035762 0.5512969 0.1649432
v 0.1035762 0.08155465 0.06175089
v -0.6255763 0.08155465 0.06175089
v 0.1035762 0.08155465 0.1649432
v -0.6255763 0.08155465 0.1649432
v 0.1035762 0.3483224 0.06175089
v 0.1035762 0.08155465 0.06175089
v 0.1035762 0.3483224 0.1649432
v 0.1035762 0.08155465 0.1649432
v -0.6255763 0.08155465 0.06175089
v -0.6255763 0.3483224 0.06175089
v -0.6255763 0.08155465 0.1649432
v -0.6255763 0.3483224 0.1649432
v 0.1035762 0.5512969 -0.05146742
v 0.1035762 0.3483224 -0.05146742
v 0.1728885 0.5512969 -0.05146742
v 0.1728885 0.3483224 -0.05146742
v -0.04891022 2.800445 0.06175089
v -0.04891022 2.800445 -0.05146742
v -0.008588302 2.800445 0.06175089
v -0.008588302 2.800445 -0.05146742
v 0.1035762 0.3483224 -0.05146742
v 0.1035762 0.3483224 0.06175089
v 0.1728885 0.3483224 -0.05146742
v 0.1728885 0.3483224 0.06175089
v 0.1035762 0.3483224 0.06175089
v 0.1035762 0.5512969 0.06175089
v 0.1728885 0.3483224 0.06175089
v 0.1728885 0.5512969 0.06175089
v -0.6255763 0.3483224 -0.05146742
v -0.6255763 0.5512969 -0.05146742
v -0.6948885 0.3483224 -0.05146742
v -0.6948885 0.5512969 -0.05146742
v -0.6255763 0.3483224 0.06175089
v -0.6255763 0.3483224 -0.05146742
v -0.6948885 0.3483224 0.06175089
v -0.6948885 0.3483224 -0.05146742
v -0.4730898 2.800445 -0.05146742
v -0.4730898 2.800445 0.06175089
v -0.5134117 2.800445 -0.05146742
v -0.5134117 2.800445 0.06175089
v -0.6255763 0.5512969 0.06175089
v -0.6255763 0.3483224 0.06175089
v -0.6948885 0.5512969 0.06175089
v -0.6948885 0.3483224 0.06175089
v 0.1035762 0.5512969 0.06175089
v -0.6255763 0.5512969 0.06175089
v 0.1035762 1.551297 0.06175089
v -0.6255763 1.551297 0.06175089
v 0.1728885 0.5512969 0.06175089
v 0.1035762 0.5512969 0.06175089
v 0.1728885 1.551297 0.06175089
v 0.1035762 1.551297 0.06175089
v 0.1035762 0.5512969 -0.05146742
v 0.1728885 0.5512969 -0.05146742
v 0.1035762 1.551297 -0.05146742
v 0.1728885 1.551297 -0.05146742
v 0.1728885 0.5512969 -0.05146742
v 0.1728885 0.5512969 0.06175089
v 0.1728885 1.551297 -0.05146742
v 0.1728885 1.551297 0.06175089
v -0.6255763 0.5512969 -0.05146742
v 0.1035762 0.5512969 -0.05146742
v -0.6255763 1.551297 -0.05146742
v 0.1035762 1.551297 -0.05146742
v -0.6948885 0.5512969 -0.05146742
v -0.6255763 0.5512969 -0.05146742
v -0.6948885 1.551297 -0.05146742
v -0.6255763 1.551297 -0.05146742
v -0.6255763 0.5512969 0.06175089
v -0.6948885 0.5512969 0.06175089
v -0.6255763 1.551297 0.06175089
v -0.6948885 1.551297 0.06175089
v -0.6948885 0.5512969 0.06175089
v -0.6948885 0.5512969 -0.05146742
v -0.6948885 1.551297 0.06175089
v -0.6948885 1.551297 -0.05146742
v 0.1728885 1.551297 0.06175089
v 0.1035762 1.551297 0.06175089
v 0.09572516 2.551297 0.06175089
v 0.03873952 2.551297 0.06175089
v -0.6948885 1.551297 -0.05146742
v -0.6255763 1.551297 -0.05146742
v -0.6177252 2.551297 -0.05146742
v -0.5607395 2.551297 -0.05146742
v -0.6255763 1.551297 0.06175089
v -0.6948885 1.551297 0.06175089
v -0.5607395 2.551297 0.06175089
v -0.6177252 2.551297 0.06175089
v -0.6948885 1.551297 0.06175089
v -0.6948885 1.551297 -0.05146742
v -0.6177252 2.551297 0.06175089
v -0.6177252 2.551297 -0.05146742
v -0.6255763 1.551297 -0.05146742
v 0.1035762 1.551297 -0.05146742
v -0.5607395 2.551297 -0.05146742
v 0.03873952 2.551297 -0.05146742
v 0.1035762 1.551297 0.06175089
v -0.6255763 1.551297 0.06175089
v 0.03873952 2.551297 0.06175089
v -0.5607395 2.551297 0.06175089
v 0.1035762 1.551297 -0.05146742
v 0.1728885 1.551297 -0.05146742
v 0.03873952 2.551297 -0.05146742
v 0.09572516 2.551297 -0.05146742
v 0.1728885 1.551297 -0.05146742
v 0.1728885 1.551297 0.06175089
v 0.09572516 2.551297 -0.05146742
v 0.09572516 2.551297 0.06175089
v 0.09572516 2.551297 0.06175089
v 0.03873952 2.551297 0.06175089
v -0.008588302 2.800445 0.06175089
v -0.04891022 2.800445 0.06175089
v -0.6177252 2.551297 -0.05146742
v -0.5607395 2.551297 -0.05146742
v -0.5134117 2.800445 -0.05146742
v -0.4730898 2.800445 -0.05146742
v -0.5607395 2.551297 0.06175089
v -0.6177252 2.551297 0.06175089
v -0.4730898 2.800445 0.06175089
v -0.5134117 2.800445 0.06175089
v -0.6177252 2.551297 0.06175089
v -0.6177252 2.551297 -0.05146742
v -0.5134117 2.800445 0.06175089
v -0.5134117 2.800445 -0.05146742
v -0.5607395 2.551297 -0.05146742
v 0.03873952 2.551297 -0.05146742
v -0.4730898 2.800445 -0.05146742
v -0.04891022 2.800445 -0.05146742
v 0.03873952 2.551297 0.06175089
v -0.5607395 2.551297 0.06175089
v -0.04891022 2.800445 0.06175089
v -0.4730898 2.800445 0.06175089
v 0.03873952 2.551297 -0.05146742
v 0.09572516 2.551297 -0.05146742
v -0.04891022 2.800445 -0.05146742
v -0.008588302 2.800445 -0.05146742
v 0.09572516 2.551297 -0.05146742
v 0.09572516 2.551297 0.06175089
v -0.008588302 2.800445 -0.05146742
v -0.008588302 2.800445 0.06175089

vn 0 0 1
vn 0 0 1
vn 0 0 1
vn 0 0 1
vn -0.7291525 0 0
vn -0.7291525 0 0
vn -0.7291525 0 0
vn -0.7291525 0 0
vn 0 0 -1
vn 0 0 -1
vn 0 0 -1
vn 0 0 -1
vn 0.7291525 0 0
vn 0.7291525 0 0
vn 0.7291525 0 0
vn 0.7291525 0 0
vn 0 0.9999999 0
vn 0 0.9999999 0
vn 0 0.9999999 0
vn 0 0.9999999 0
vn 0 -0.9999999 0
vn 0 -1 0
vn 0 -0.9999999 0
vn 0 -0.9999999 0
vn 0 0 1
vn 0 0 1
vn 0 0 1
vn 0 0 1
vn 0.7291525 0 0
vn 0.7291525 0 0
vn 0.7291525 0 0
vn 0.7291525 0 0
vn -0.7291525 0 0
vn -0.7291525 0 0
vn -0.7291525 0 0
vn -0.7291525 0 0
vn 0 0 -1
vn 0 0 -1
vn 0 0 -1
vn 0 0 -1
vn 0.7291525 0 0
vn 0.7291525 0 0
vn 0.7291525 0 0
vn 0.7291525 0 0
vn -0.7291525 0 0
vn -0.7291525 0 0
vn -0.7291525 0 0
vn -0.7291525 0 0
vn 0 1 0
vn 0 1 0
vn 0 1 0
vn 0 1 0
vn 0 -1 0
vn 0 -1 0
vn 0 -1 0
vn 0 -1 0
vn 0.7291525 0 0
vn 0.7291525 0 0
vn 0.7291525 0 0
vn 0.7291525 0 0
vn -0.7291525 0 0
vn -0.7291525 0 0
vn -0.7291525 0 0
vn -0.7291525 0 0
vn 0.7291525 0 0
vn 0.7291525 0 0
vn 0.7291525 0 0
vn 0.7291525 0 0
vn -0.7291525 0 0
vn -0.7291525 0 0
vn -0.7291525 0 0
vn -0.7291525 0 0
vn 0 0.9999999 0
vn 0 0.9999999 0
vn 0 0.9999999 0
vn 0 0.9999999 0
vn 0 -0.9999999 0
vn 0 -0.9999999 0
vn 0 -0.9999999 0
vn 0 -0.9999999 0
vn 0.7291525 0 0
vn 0.7291525 0 0
vn 0.7291525 0 0
vn 0.7291525 0 0
vn -0.7291525 0 0
vn -0.7291525 0 0
vn -0.7291525 0 0
vn -0.7291525 0 0
vn 0 0 -0.9999999
vn 0 0 -0.9999999
vn 0 0 -0.9999999
vn 0 0 -0.9999999
vn 0 0.9999999 0
vn 0 0.9999999 0
vn 0 0.9999999 0
vn 0 0.9999999 0
vn 0 -1 0
vn 0 -1 0
vn 0 -1 0
vn 0 -1 0
vn 0 0 0.9999999
vn 0 0 0.9999999
vn 0 0 0.9999999
vn 0 0 0.9999999
vn 0 0 -1
vn 0 0 -1
vn 0 0 -1
vn 0 0 -1
vn 0 -1 0
vn 0 -1 0
vn 0 -1 0
vn 0 -1 0
vn 0 0.9999999 0
vn 0 0.9999999 0
vn 0 0.9999999 0
vn 0 0.9999999 0
vn 0 0 1
vn 0 0 1
vn 0 0 1
vn 0 0 1
vn 0 0 1
vn 0 0 1
vn 0 0 1
vn 0 0 1
vn 0 0 1
vn 0 0 1
vn 0 0 1
vn 0 0 1
vn 0 0 -1
vn 0 0 -1
vn 0 0 -1
vn 0 0 -1
vn 0.7291525 0 0
vn 0.7291525 0 0
vn 0.7291525 0 0
vn 0.7291525 0 0
vn 0 0 -1
vn 0 0 -1
vn 0 0 -1
vn 0 0 -1
vn 0 0 -1
vn 0 0 -1
vn 0 0 -1
vn 0 0 -1
vn 0 0 1
vn 0 0 1
vn 0 0 1
vn 0 0 1
vn -0.7291525 0 0
vn -0.7291525 0 0
vn -0.7291525 0 0
vn -0.7291525 0 0
vn 0 0 1
vn 0 0 1
vn 0 0 1
vn 0 0 1
vn 0 0 -1
vn 0 0 -1
vn 0 0 -1
vn 0 0 -1
vn 0 0 1
vn 0 0 1
vn 0 0 1
vn 0 0 1
vn -0.7251036 0.1052384 0
vn -0.7251036 0.1052384 0
vn -0.7251036 0.1052384 0
vn -0.7251036 0.1052384 0
vn 0 0 -0.9999999
vn 0 0 -1
vn 0 0 -1
vn 0 0 -0.9999999
vn 0 0 0.9999999
vn 0 0 1
vn 0 0 1
vn 0 0 0.9999999
vn 0 0 -1
vn 0 0 -1
vn 0 0 -1
vn 0 0 -1
vn 0.7251036 0.1052384 0
vn 0.7251036 0.1052384 0
vn 0.7251036 0.1052384 0
vn 0.7251036 0.1052384 0
vn 0 0 1
vn 0 0 1
vn 0 0 0.9999999
vn 0 0 1
vn 0 0 -1
vn 0 0 -1
vn 0 0 -1
vn 0 0 -1
vn 0 0 1
vn 0 0 1
vn 0 0 1
vn 0 0 1
vn -0.6323251 0.4979503 0
vn -0.6323251 0.4979503 0
vn -0.6323251 0.4979503 0
vn -0.6323251 0.4979503 0
vn 0 0 -0.9999999
vn 0 0 -1
vn 0 0 -1
vn 0 0 -0.9999999
vn 0 0 0.9999999
vn 0 0 1
vn 0 0 1
vn 0 0 0.9999999
vn 0 0 -1
vn 0 0 -1
vn 0 0 -0.9999999
vn 0 0 -1
vn 0.6323251 0.4979503 0
vn 0.6323251 0.4979503 0
vn 0.6323251 0.4979503 0
vn 0.6323251 0.4979503 0

vt 0.5 -1.359445
vt -0.5 -1.359445
vt 0.5 -1.092678
vt -0.5 -1.092678
vt -0.1299672 -1.359445
vt -0.1649432 -1.359445
vt -0.05146742 -1.092678
vt -0.1649432 -1.092678
vt 0.5 -1.359445
vt -0.5 -1.359445
vt 0.5 -1.092678
vt -0.5 -1.092678
vt 0.1649432 -1.359445
vt 0.05146742 -1.359445
vt 0.1649432 -1.092678
vt 0.05146742 -1.092678
vt -0.5 -0.05146742
vt 0.5 -0.05146742
vt -0.5 -0.1649432
vt 0.5 -0.1649432
vt 0.5 -0.1649432
vt -0.5 -0.1649432
vt 0.5 -0.05146742
vt -0.5 -0.1299672
vt 0.5 -1.092678
vt -0.5 -1.092678
vt 0.5 -0.889703
vt -0.5 -0.889703
vt 0.1649432 -1.092678
vt 0.05146742 -1.092678
vt 0.1649432 -0.889703
vt 0.05146742 -0.889703
vt -0.05146742 -1.092678
vt -0.1649432 -1.092678
vt -0.05146742 -0.889703
vt -0.1649432 -0.889703
vt 0.5 -1.092678
vt -0.5 -1.092678
vt 0.5 -0.889703
vt -0.5 -0.889703
vt 0.05146742 -0.889703
vt 0.05146742 -1.092678
vt -0.06175089 -0.889703
vt -0.06175089 -1.092678
vt -0.05146742 -1.092678
vt -0.05146742 -0.889703
vt 0.06175089 -1.092678
vt 0.06175089 -0.889703
vt 0.2908716 -0.05146742
vt -0.2908716 -0.05146742
vt 0.2908716 0.06175089
vt -0.2908716 0.06175089
vt 0.5 -0.05146742
vt -0.5 -0.1299672
vt 0.5 0.06175089
vt -0.5 0.06175089
vt 0.05146742 -1.092678
vt 0.05146742 -1.359445
vt -0.06175089 -1.092678
vt -0.06175089 -1.359445
vt -0.1299672 -1.359445
vt -0.05146742 -1.092678
vt 0.06175089 -1.359445
vt 0.06175089 -1.092678
vt -0.06175089 -0.889703
vt -0.06175089 -1.092678
vt -0.1649432 -0.889703
vt -0.1649432 -1.092678
vt 0.06175089 -1.092678
vt 0.06175089 -0.889703
vt 0.1649432 -1.092678
vt 0.1649432 -0.889703
vt 0.5 0.06175089
vt -0.5 0.06175089
vt 0.5 0.1649432
vt -0.5 0.1649432
vt 0.5 0.06175089
vt -0.5 0.06175089
vt 0.5 0.1649432
vt -0.5 0.1649432
vt -0.06175089 -1.092678
vt -0.06175089 -1.359445
vt -0.1649432 -1.092678
vt -0.1649432 -1.359445
vt 0.06175089 -1.359445
vt 0.06175089 -1.092678
vt 0.1649432 -1.359445
vt 0.1649432 -1.092678
vt -0.5 -0.889703
vt -0.5 -1.092678
vt -0.5950587 -0.889703
vt -0.5950587 -1.092678
vt -0.2908716 0.06175089
vt -0.2908716 -0.05146742
vt -0.3461713 0.06175089
vt -0.3461713 -0.05146742
vt 0.5 -0.05146742
vt 0.5 0.06175089
vt 0.5950587 -0.05146742
vt 0.5950587 0.06175089
vt 0.5 -1.092678
vt 0.5 -0.889703
vt 0.5950587 -1.092678
vt 0.5950587 -0.889703
vt 0.5 -1.092678
vt 0.5 -0.889703
vt 0.5950587 -1.092678
vt 0.5950587 -0.889703
vt -0.5 0.06175089
vt -0.5 -0.05146742
vt -0.5950587 0.06175089
vt -0.5950587 -0.05146742
vt 0.2908716 -0.05146742
vt 0.2908716 0.06175089
vt 0.3461713 -0.05146742
vt 0.3461713 0.06175089
vt -0.5 -0.889703
vt -0.5 -1.092678
vt -0.5950587 -0.889703
vt -0.5950587 -1.092678
vt 0.5 -0.889703
vt -0.5 -0.889703
vt 0.5 0.110297
vt -0.5 0.110297
vt 0.5950587 -0.889703
vt 0.5 -0.889703
vt 0.5950587 0.110297
vt 0.5 0.110297
vt -0.5 -0.889703
vt -0.5950587 -0.889703
vt -0.5 0.110297
vt -0.5950587 0.110297
vt 0.05146742 -0.889703
vt -0.06175089 -0.889703
vt 0.05146742 0.110297
vt -0.06175089 0.110297
vt 0.5 -0.889703
vt -0.5 -0.889703
vt 0.5 0.110297
vt -0.5 0.110297
vt 0.5950587 -0.889703
vt 0.5 -0.889703
vt 0.5950587 0.110297
vt 0.5 0.110297
vt -0.5 -0.889703
vt -0.5950587 -0.889703
vt -0.5 0.110297
vt -0.5950587 0.110297
vt 0.06175089 -0.889703
vt -0.05146742 -0.889703
vt 0.06175089 0.110297
vt -0.05146742 0.110297
vt 0.5950587 0.110297
vt 0.5 0.110297
vt 0.4892326 1.110297
vt 0.4110793 1.110297
vt 0.5950587 0.110297
vt 0.5 0.110297
vt 0.4892326 1.110297
vt 0.4110793 1.110297
vt -0.5 0.110297
vt -0.5950587 0.110297
vt -0.4110793 1.110297
vt -0.4892326 1.110297
vt 0.06175089 0.04706145
vt -0.05146742 0.04706145
vt 0.06175089 1.052645
vt -0.05146742 1.052645
vt 0.5 0.110297
vt -0.5 0.110297
vt 0.4110793 1.110297
vt -0.4110793 1.110297
vt 0.5 0.110297
vt -0.5 0.110297
vt 0.4110793 1.110297
vt -0.4110793 1.110297
vt -0.5 0.110297
vt -0.5950587 0.110297
vt -0.4110793 1.110297
vt -0.4892326 1.110297
vt 0.05146742 0.04706145
vt -0.06175089 0.04706145
vt 0.05146742 1.052645
vt -0.06175089 1.052645
vt 0.4892326 1.110297
vt 0.4110793 1.110297
vt 0.3461713 1.359445
vt 0.2908716 1.359445
vt 0.4892326 1.110297
vt 0.4110793 1.110297
vt 0.3461713 1.359445
vt 0.2908716 1.359445
vt -0.4110793 1.110297
vt -0.4892326 1.110297
vt -0.2908716 1.359445
vt -0.3461713 1.359445
vt 0.06175089 0.7192422
vt -0.05146742 0.7192422
vt 0.06175089 1.006542
vt -0.05146742 1.006542
vt 0.4110793 1.110297
vt -0.4110793 1.110297
vt 0.2908716 1.359445
vt -0.2908716 1.359445
vt 0.4110793 1.110297
vt -0.4110793 1.110297
vt 0.2908716 1.359445
vt -0.2908716 1.359445
vt -0.4110793 1.110297
vt -0.4892326 1.110297
vt -0.2908716 1.359445
vt -0.3461713 1.359445
vt 0.05146742 0.7192422
vt -0.06175089 0.7192422
vt 0.05146742 1.006542
vt -0.06175089 1.006542

g ShoppingMallSecurityGate 
usemtl Default_Prototype
f 3/3/3 4/4/4 2/2/2 1/1/1
f 7/7/7 8/8/8 6/6/6 5/5/5
f 11/11/11 12/12/12 10/10/10 9/9/9
f 15/15/15 16/16/16 14/14/14 13/13/13
f 19/19/19 20/20/20 18/18/18 17/17/17
f 23/23/23 24/24/24 22/22/22 21/21/21
f 27/27/27 28/28/28 26/26/26 25/25/25
f 31/31/31 32/32/32 30/30/30 29/29/29
f 35/35/35 36/36/36 34/34/34 33/33/33
f 39/39/39 40/40/40 38/38/38 37/37/37
f 43/43/43 44/44/44 42/42/42 41/41/41
f 47/47/47 48/48/48 46/46/46 45/45/45
f 51/51/51 52/52/52 50/50/50 49/49/49
f 55/55/55 56/56/56 54/54/54 53/53/53
f 59/59/59 60/60/60 58/58/58 57/57/57
f 63/63/63 64/64/64 62/62/62 61/61/61
f 67/67/67 68/68/68 66/66/66 65/65/65
f 71/71/71 72/72/72 70/70/70 69/69/69
f 75/75/75 76/76/76 74/74/74 73/73/73
f 79/79/79 80/80/80 78/78/78 77/77/77
f 83/83/83 84/84/84 82/82/82 81/81/81
f 87/87/87 88/88/88 86/86/86 85/85/85
f 91/91/91 92/92/92 90/90/90 89/89/89
f 95/95/95 96/96/96 94/94/94 93/93/93
f 99/99/99 100/100/100 98/98/98 97/97/97
f 103/103/103 104/104/104 102/102/102 101/101/101
f 107/107/107 108/108/108 106/106/106 105/105/105
f 111/111/111 112/112/112 110/110/110 109/109/109
f 115/115/115 116/116/116 114/114/114 113/113/113
f 119/119/119 120/120/120 118/118/118 117/117/117
f 123/123/123 124/124/124 122/122/122 121/121/121
f 127/127/127 128/128/128 126/126/126 125/125/125
f 131/131/131 132/132/132 130/130/130 129/129/129
f 135/135/135 136/136/136 134/134/134 133/133/133
f 139/139/139 140/140/140 138/138/138 137/137/137
f 143/143/143 144/144/144 142/142/142 141/141/141
f 147/147/147 148/148/148 146/146/146 145/145/145
f 151/151/151 152/152/152 150/150/150 149/149/149
f 155/155/155 156/156/156 154/154/154 153/153/153
f 159/159/159 160/160/160 158/158/158 157/157/157
f 163/163/163 164/164/164 162/162/162 161/161/161
f 167/167/167 168/168/168 166/166/166 165/165/165
f 171/171/171 172/172/172 170/170/170 169/169/169
f 175/175/175 176/176/176 174/174/174 173/173/173
f 179/179/179 180/180/180 178/178/178 177/177/177
f 183/183/183 184/184/184 182/182/182 181/181/181
f 187/187/187 188/188/188 186/186/186 185/185/185
f 191/191/191 192/192/192 190/190/190 189/189/189
f 195/195/195 196/196/196 194/194/194 193/193/193
f 199/199/199 200/200/200 198/198/198 197/197/197
f 203/203/203 204/204/204 202/202/202 201/201/201
f 207/207/207 208/208/208 206/206/206 205/205/205
f 211/211/211 212/212/212 210/210/210 209/209/209
f 215/215/215 216/216/216 214/214/214 213/213/213

