# Exported from ProBuilder
# http://www.procore3d.com/probuilder
# 5/4/2018 11:56:09 AM

mtllib ./SideTabel.mtl
o SideTabel

g SideTabel
v 0.153 0.04400003 0.999
v -0.847 0.04400003 0.999
v 0.153 1.044 0.999
v -0.847 1.044 0.999
v -0.847 0.04400003 0.999
v -0.847 0.04400003 -0.0009999871
v -0.847 1.044 0.999
v -0.847 1.044 -0.0009999871
v -0.847 0.04400003 -0.0009999871
v 0.153 0.04400003 -0.0009999871
v -0.847 1.044 -0.0009999871
v 0.153 1.044 -0.0009999871
v 0.153 0.04400003 -0.0009999871
v 0.153 0.04400003 0.999
v 0.153 1.044 -0.0009999871
v 0.153 1.044 0.999
v 0.153 1.044 0.999
v -0.847 1.044 0.999
v 0.153 1.044 -0.0009999871
v -0.847 1.044 -0.0009999871
v 0.153 0.04400003 -0.0009999871
v -0.847 0.04400003 -0.0009999871
v 0.153 0.04400003 0.999
v -0.847 0.04400003 0.999

vn 0 0 1
vn 0 0 1
vn 0 0 1
vn 0 0 1
vn -1 0 0
vn -1 0 0
vn -1 0 0
vn -1 0 0
vn 0 0 -1
vn 0 0 -1
vn 0 0 -1
vn 0 0 -1
vn 1 0 0
vn 1 0 0
vn 1 0 0
vn 1 0 0
vn 0 1 0
vn 0 1 0
vn 0 1 0
vn 0 1 0
vn 0 -1 0
vn 0 -1 0
vn 0 -1 0
vn 0 -1 0

vt 0.5 -0.5
vt -0.5 -0.5
vt 0.5 0.5
vt -0.5 0.5
vt 0.5 -0.5
vt -0.5 -0.5
vt 0.5 0.5
vt -0.5 0.5
vt 0.5 -0.5
vt -0.5 -0.5
vt 0.5 0.5
vt -0.5 0.5
vt 0.5 -0.5
vt -0.5 -0.5
vt 0.5 0.5
vt -0.5 0.5
vt -0.5 0.5
vt 0.5 0.5
vt -0.5 -0.5
vt 0.5 -0.5
vt 0.5 -0.5
vt -0.5 -0.5
vt 0.5 0.5
vt -0.5 0.5

g SideTabel
usemtl Default_Prototype
f 3/3/3 4/4/4 2/2/2 1/1/1
f 7/7/7 8/8/8 6/6/6 5/5/5
f 11/11/11 12/12/12 10/10/10 9/9/9
f 15/15/15 16/16/16 14/14/14 13/13/13
f 19/19/19 20/20/20 18/18/18 17/17/17
f 23/23/23 24/24/24 22/22/22 21/21/21

