# Exported from ProBuilder
# http://www.procore3d.com/probuilder
# 5/4/2018 12:20:44 PM

mtllib ./SingleBed.mtl
o SingleBed

g SingleBed
v -0.1513945 0.4585134 1.499727
v -3.053971 0.4585134 1.499727
v -0.1513945 0.8388008 1.499727
v -3.053971 0.8388008 1.499727
v -3.103971 0.4585134 1.449727
v -3.103971 0.4585134 0.07607651
v -3.103971 0.8388008 1.449727
v -3.103971 0.8388008 0.07607651
v -3.053971 0.4585134 0.02607656
v -0.1513945 0.4585134 0.02607656
v -3.053971 0.8388008 0.02607656
v -0.1513945 0.8388008 0.02607656
v -0.1013945 0.4585134 0.07607651
v -0.1013945 0.4585134 1.449727
v -0.1013945 0.8388008 0.07607651
v -0.1013945 0.8388008 1.449727
v -0.1513945 0.8888007 1.449727
v -3.053971 0.8888007 1.449727
v -0.1513945 0.8888007 0.07607651
v -3.053971 0.8888007 0.07607651
v -0.1513945 0.4085135 0.07607651
v -3.053971 0.4085135 0.07607651
v -0.1513945 0.4085135 1.449727
v -3.053971 0.4085135 1.449727
v -0.1513945 0.4585134 1.499727
v -3.053971 0.4585134 1.499727
v -0.1513945 0.4085135 1.449727
v -3.053971 0.4085135 1.449727
v -0.1513945 0.8388008 1.499727
v -0.1513945 0.4585134 1.499727
v -0.1013945 0.8388008 1.449727
v -0.1013945 0.4585134 1.449727
v -3.053971 0.4585134 1.499727
v -3.053971 0.8388008 1.499727
v -3.103971 0.4585134 1.449727
v -3.103971 0.8388008 1.449727
v -3.053971 0.8388008 1.499727
v -0.1513945 0.8388008 1.499727
v -3.053971 0.8888007 1.449727
v -0.1513945 0.8888007 1.449727
v -3.103971 0.4585134 1.449727
v -3.103971 0.4585134 0.07607651
v -3.053971 0.4085135 1.449727
v -3.053971 0.4085135 0.07607651
v -3.103971 0.4585134 0.07607651
v -3.103971 0.8388008 0.07607651
v -3.053971 0.4585134 0.02607656
v -3.053971 0.8388008 0.02607656
v -3.103971 0.8388008 0.07607651
v -3.103971 0.8388008 1.449727
v -3.053971 0.8888007 0.07607651
v -3.053971 0.8888007 1.449727
v -3.053971 0.4585134 0.02607656
v -0.1513945 0.4585134 0.02607656
v -3.053971 0.4085135 0.07607651
v -0.1513945 0.4085135 0.07607651
v -0.1513945 0.4585134 0.02607656
v -0.1513945 0.8388008 0.02607656
v -0.1013945 0.4585134 0.07607651
v -0.1013945 0.8388008 0.07607651
v -0.1513945 0.8388008 0.02607656
v -3.053971 0.8388008 0.02607656
v -0.1513945 0.8888007 0.07607651
v -3.053971 0.8888007 0.07607651
v -0.1013945 0.4585134 0.07607651
v -0.1013945 0.4585134 1.449727
v -0.1513945 0.4085135 0.07607651
v -0.1513945 0.4085135 1.449727
v -0.1013945 0.8388008 1.449727
v -0.1013945 0.8388008 0.07607651
v -0.1513945 0.8888007 1.449727
v -0.1513945 0.8888007 0.07607651
v -0.1513945 0.4585134 1.499727
v -0.1513945 0.4085135 1.449727
v -0.1013945 0.4585134 1.449727
v -3.053971 0.4585134 1.499727
v -3.053971 0.4085135 1.449727
v -3.103971 0.4585134 1.449727
v -0.1513945 0.8388008 1.499727
v -0.1013945 0.8388008 1.449727
v -0.1513945 0.8888007 1.449727
v -3.053971 0.8388008 1.499727
v -3.103971 0.8388008 1.449727
v -3.053971 0.8888007 1.449727
v -3.103971 0.4585134 0.07607651
v -3.053971 0.4085135 0.07607651
v -3.053971 0.4585134 0.02607656
v -3.103971 0.8388008 0.07607651
v -3.053971 0.8388008 0.02607656
v -3.053971 0.8888007 0.07607651
v -0.1513945 0.4585134 0.02607656
v -0.1513945 0.4085135 0.07607651
v -0.1013945 0.4585134 0.07607651
v -0.1513945 0.8388008 0.02607656
v -0.1013945 0.8388008 0.07607651
v -0.1513945 0.8888007 0.07607651
v -0.05931652 0.03119925 1.557725
v -3.174684 0.03119925 1.557725
v -0.05931652 0.4755135 1.557725
v -3.174684 0.4755135 1.557725
v -3.174684 0.03119925 1.557725
v -3.174684 0.03119925 -0.01172519
v -3.174684 0.4755135 1.557725
v -3.174684 0.4755135 -0.01172519
v -3.174684 0.03119925 -0.01172519
v -0.05931652 0.03119925 -0.01172519
v -3.174684 0.4755135 -0.01172519
v -0.05931652 0.4755135 -0.01172519
v -0.05931652 0.03119925 -0.01172519
v -0.05931652 0.03119925 1.557725
v -0.05931652 0.4755135 -0.01172519
v -0.05931652 0.4755135 1.557725
v -0.05931652 0.4755135 1.557725
v -3.174684 0.4755135 1.557725
v -0.05931652 0.4755135 -0.01172519
v -3.174684 0.4755135 -0.01172519
v -0.05931652 0.03119925 -0.01172519
v -3.174684 0.03119925 -0.01172519
v -0.05931652 0.03119925 1.557725
v -3.174684 0.03119925 1.557725

vn 0 0 1
vn 0 0 1
vn 0 0 1
vn 0 0 1
vn -1 0 0
vn -1 0 0
vn -1 0 0
vn -1 0 0
vn 0 0 -1
vn 0 0 -1
vn 0 0 -1
vn 0 0 -1
vn 1 0 0
vn 1 0 0
vn 1 0 0
vn 1 0 0
vn 0 1 0
vn 0 1 0
vn 0 1 0
vn 0 1 0
vn 0 -1 0
vn 0 -1 0
vn 0 -1 0
vn 0 -1 0
vn 0 -0.7071069 0.7071066
vn 0 -0.7071069 0.7071066
vn 0 -0.7071069 0.7071066
vn 0 -0.7071069 0.7071066
vn 0.7071072 0 0.7071064
vn 0.7071072 0 0.7071064
vn 0.7071072 0 0.7071064
vn 0.7071072 0 0.7071064
vn -0.7071072 0 0.7071064
vn -0.7071072 0 0.7071064
vn -0.7071072 0 0.7071064
vn -0.7071072 0 0.7071064
vn 0 0.7071067 0.7071067
vn 0 0.7071067 0.7071067
vn 0 0.7071067 0.7071067
vn 0 0.7071067 0.7071067
vn -0.7071071 -0.7071065 0
vn -0.7071071 -0.7071065 0
vn -0.7071071 -0.7071065 0
vn -0.7071071 -0.7071065 0
vn -0.7071068 0 -0.7071068
vn -0.7071068 0 -0.7071068
vn -0.7071068 0 -0.7071068
vn -0.7071068 0 -0.7071068
vn -0.7071072 0.7071064 0
vn -0.7071072 0.7071064 0
vn -0.7071072 0.7071064 0
vn -0.7071072 0.7071064 0
vn 0 -0.7071066 -0.7071071
vn 0 -0.7071066 -0.7071071
vn 0 -0.7071066 -0.7071071
vn 0 -0.7071066 -0.7071071
vn 0.7071068 0 -0.7071068
vn 0.7071068 0 -0.7071068
vn 0.7071068 0 -0.7071068
vn 0.7071068 0 -0.7071068
vn 0 0.7071064 -0.7071071
vn 0 0.7071064 -0.7071071
vn 0 0.7071064 -0.7071071
vn 0 0.7071064 -0.7071071
vn 0.7071071 -0.7071065 0
vn 0.7071071 -0.7071065 0
vn 0.7071071 -0.7071065 0
vn 0.7071071 -0.7071065 0
vn 0.7071072 0.7071064 0
vn 0.7071072 0.7071064 0
vn 0.7071072 0.7071064 0
vn 0.7071072 0.7071064 0
vn 0.5773507 -0.5773502 0.57735
vn 0.5773507 -0.5773502 0.57735
vn 0.5773507 -0.5773502 0.57735
vn -0.5773507 -0.5773502 0.57735
vn -0.5773507 -0.5773502 0.57735
vn -0.5773507 -0.5773502 0.57735
vn 0.5773507 0.5773501 0.5773501
vn 0.5773507 0.5773501 0.5773501
vn 0.5773507 0.5773501 0.5773501
vn -0.5773507 0.5773501 0.5773501
vn -0.5773507 0.5773501 0.5773501
vn -0.5773507 0.5773501 0.5773501
vn -0.5773504 -0.5773499 -0.5773504
vn -0.5773504 -0.5773499 -0.5773504
vn -0.5773504 -0.5773499 -0.5773504
vn -0.5773505 0.5773498 -0.5773505
vn -0.5773505 0.5773498 -0.5773505
vn -0.5773505 0.5773498 -0.5773505
vn 0.5773504 -0.5773499 -0.5773504
vn 0.5773504 -0.5773499 -0.5773504
vn 0.5773504 -0.5773499 -0.5773504
vn 0.5773505 0.5773498 -0.5773505
vn 0.5773505 0.5773498 -0.5773505
vn 0.5773505 0.5773498 -0.5773505
vn 0 0 1
vn 0 0 1
vn 0 0 1
vn 0 0 1
vn -1 0 0
vn -1 0 0
vn -1 0 0
vn -1 0 0
vn 0 0 -1
vn 0 0 -1
vn 0 0 -1
vn 0 0 -1
vn 1 0 0
vn 1 0 0
vn 1 0 0
vn 1 0 0
vn 0 1 0
vn 0 1 0
vn 0 1 0
vn 0 1 0
vn 0 -1 0
vn 0 -1 0
vn 0 -1 0
vn 0 -1 0

vt -0.05 0.05
vt -2.952577 0.05
vt -0.05 0.4302873
vt -2.952577 0.4302873
vt -0.05 0.05
vt -1.42365 0.05
vt -0.05 0.4302873
vt -1.42365 0.4302873
vt 2.952577 0.05
vt 0.05 0.05
vt 2.952577 0.4302873
vt 0.05 0.4302873
vt 1.42365 0.05
vt 0.05 0.05
vt 1.42365 0.4302873
vt 0.05 0.4302873
vt 0.05 -0.05
vt 2.952577 -0.05
vt 0.05 -1.42365
vt 2.952577 -1.42365
vt -0.05 -1.42365
vt -2.952577 -1.42365
vt -0.05 -0.05
vt -2.952577 -0.05
vt -0.05 0.03535534
vt -2.952577 0.03535534
vt -0.05 -0.03535534
vt -2.952577 -0.03535534
vt -0.03535534 0.4302873
vt -0.03535534 0.05
vt 0.03535534 0.4302873
vt 0.03535534 0.05
vt -2.087786 0.05
vt -2.087786 0.4302873
vt -2.158497 0.05
vt -2.158497 0.4302873
vt -2.952577 0.3042591
vt -0.05 0.3042591
vt -2.952577 0.3749698
vt -0.05 0.3749698
vt -0.05 2.158497
vt -1.42365 2.158497
vt -0.05 2.087786
vt -1.42365 2.087786
vt 1.11647 0.05
vt 1.11647 0.4302873
vt 1.045759 0.05
vt 1.045759 0.4302873
vt -1.42365 -1.818882
vt -0.05 -1.818882
vt -1.42365 -1.748171
vt -0.05 -1.748171
vt 2.952577 1.077383
vt 0.05 1.077383
vt 2.952577 1.006672
vt 0.05 1.006672
vt 1.077383 0.05
vt 1.077383 0.4302873
vt 1.006672 0.05
vt 1.006672 0.4302873
vt 0.05 -0.7377681
vt 2.952577 -0.7377681
vt 0.05 -0.6670574
vt 2.952577 -0.6670574
vt 0.03535534 -1.42365
vt 0.03535534 -0.05
vt -0.03535534 -1.42365
vt -0.03535534 -0.05
vt 0.05 0.3042591
vt 1.42365 0.3042591
vt 0.05 0.3749698
vt 1.42365 0.3749698
vt -0.03535534 0.02041242
vt 0 -0.04082483
vt 0.03535534 0.02041242
vt -2.087786 1.24621
vt -2.123141 1.184972
vt -2.158497 1.24621
vt -0.03535534 0.3717405
vt 0.03535534 0.3717405
vt 0 0.4329778
vt -2.087786 -0.8540562
vt -2.158497 -0.8540562
vt -2.123142 -0.792819
vt 1.11647 1.847823
vt 1.081115 1.786586
vt 1.045759 1.847823
vt 1.11647 -1.45567
vt 1.045759 -1.45567
vt 1.081115 -1.394433
vt 1.077383 0.6220276
vt 1.042027 0.5607904
vt 1.006672 0.6220276
vt 1.077383 -0.2298745
vt 1.006672 -0.2298745
vt 1.042027 -0.1686372
vt 2.115367 0.5556858
vt -1 0.5556858
vt 2.115367 1
vt -1 1
vt 0 0.5556858
vt -1.56945 0.5556858
vt 0 1
vt -1.56945 1
vt 1 0.5556858
vt -2.115367 0.5556858
vt 1 1
vt -2.115367 1
vt 1.56945 0.5556858
vt 0 0.5556858
vt 1.56945 1
vt 0 1
vt -2.115367 0
vt 1 0
vt -2.115367 -1.56945
vt 1 -1.56945
vt 2.115367 -1.56945
vt -1 -1.56945
vt 2.115367 0
vt -1 0

g SingleBed_0
usemtl Default_Prototype
f 3/3/3 4/4/4 2/2/2 1/1/1
f 7/7/7 8/8/8 6/6/6 5/5/5
f 11/11/11 12/12/12 10/10/10 9/9/9
f 15/15/15 16/16/16 14/14/14 13/13/13
f 19/19/19 20/20/20 18/18/18 17/17/17
f 23/23/23 24/24/24 22/22/22 21/21/21
f 28/28/28 27/27/27 25/25/25 26/26/26
f 32/32/32 31/31/31 29/29/29 30/30/30
f 36/36/36 35/35/35 33/33/33 34/34/34
f 40/40/40 39/39/39 37/37/37 38/38/38
f 44/44/44 43/43/43 41/41/41 42/42/42
f 48/48/48 47/47/47 45/45/45 46/46/46
f 52/52/52 51/51/51 49/49/49 50/50/50
f 56/56/56 55/55/55 53/53/53 54/54/54
f 60/60/60 59/59/59 57/57/57 58/58/58
f 64/64/64 63/63/63 61/61/61 62/62/62
f 68/68/68 67/67/67 65/65/65 66/66/66
f 72/72/72 71/71/71 69/69/69 70/70/70
f 99/99/99 100/100/100 98/98/98 97/97/97
f 103/103/103 104/104/104 102/102/102 101/101/101
f 107/107/107 108/108/108 106/106/106 105/105/105
f 111/111/111 112/112/112 110/110/110 109/109/109
f 115/115/115 116/116/116 114/114/114 113/113/113
f 119/119/119 120/120/120 118/118/118 117/117/117

g SingleBed_1
usemtl Default_Prototype
f 73/73/73 74/74/74 75/75/75
f 78/78/78 77/77/77 76/76/76
f 79/79/79 80/80/80 81/81/81
f 84/84/84 83/83/83 82/82/82
f 87/87/87 86/86/86 85/85/85
f 90/90/90 89/89/89 88/88/88
f 93/93/93 92/92/92 91/91/91
f 96/96/96 95/95/95 94/94/94

